<svg xmlns="http://www.w3.org/2000/svg" viewBox="0 0 500 500"><g id="freepik--background-simple--inject-14"><path d="M96.74,173.8s-26.93,61.67,5.23,124S204,393.15,259.88,421.42s115.5,14.76,145.34-31.16-7.43-78.89-5-144.5,13.25-82.95-21.14-138.5S255.59,39.17,186.29,80.08,96.74,173.8,96.74,173.8Z" style="fill:#6699CC"></path><path d="M96.74,173.8s-26.93,61.67,5.23,124S204,393.15,259.88,421.42s115.5,14.76,145.34-31.16-7.43-78.89-5-144.5,13.25-82.95-21.14-138.5S255.59,39.17,186.29,80.08,96.74,173.8,96.74,173.8Z" style="fill:#fff;opacity:0.7000000000000001"></path></g><g id="freepik--Door--inject-14"><rect x="123.29" y="108.94" width="158.37" height="329.66" transform="translate(404.95 547.55) rotate(180)" style="fill:none;stroke:#263238;stroke-miterlimit:10;stroke-width:1.0509324073791504px"></rect><path d="M135.3,97.9A416.71,416.71,0,0,1,267,97.57l20.45,3.22V438.73h-9.52V111H125V438.73H114.43V100.79Z" style="fill:none;stroke:#263238;stroke-miterlimit:10;stroke-width:1.0509324073791504px"></path><rect x="142.66" y="124.58" width="119.63" height="300.43" transform="translate(404.95 549.59) rotate(180)" style="fill:none;stroke:#263238;stroke-miterlimit:10;stroke-width:1.0509324073791504px"></rect><rect x="155.92" y="310.14" width="93.12" height="93.8" transform="translate(404.95 714.08) rotate(180)" style="fill:none;stroke:#263238;stroke-miterlimit:10;stroke-width:1.0509324073791504px"></rect><rect x="213.69" y="147.01" width="35.35" height="148.86" style="fill:none;stroke:#263238;stroke-linecap:round;stroke-linejoin:round;stroke-width:1.0509324073791504px"></rect><rect x="155.92" y="147.01" width="35.35" height="148.86" style="fill:none;stroke:#263238;stroke-linecap:round;stroke-linejoin:round;stroke-width:1.0509324073791504px"></rect><rect x="167.39" y="321.7" width="70.18" height="70.69" transform="translate(404.95 714.08) rotate(180)" style="fill:none;stroke:#263238;stroke-miterlimit:10;stroke-width:1.0509324073791504px"></rect><path d="M140.26,238.77a2,2,0,0,0-2,2V254H126.13v4.59h12.09v60H126.13v4.6h12.09v14.15a2,2,0,0,0,4.08,0V240.81A2,2,0,0,0,140.26,238.77Z" style="fill:none;stroke:#263238;stroke-linecap:round;stroke-linejoin:round;stroke-width:1.0509324073791504px"></path><rect x="126.82" y="285.55" width="6.62" height="12.63" style="fill:none;stroke:#263238;stroke-linecap:round;stroke-linejoin:round;stroke-width:1.0509324073791504px"></rect><line x1="364.49" y1="438.53" x2="364.49" y2="58.62" style="fill:#fff;stroke:#263238;stroke-linecap:round;stroke-linejoin:round;stroke-width:1.0509324073791504px"></line></g><g id="freepik--character-2--inject-14"><polygon points="301.29 270.45 297.61 298.47 299.01 360.12 298.66 418.63 311.43 418.63 318.63 358.37 322.83 305.12 325.63 305.12 332.64 360.82 340.7 417.92 353.31 417.92 351.56 356.97 348.75 287.96 344.55 269.39 301.29 270.45" style="fill:#263238;stroke:#263238;stroke-linecap:round;stroke-linejoin:round;stroke-width:1.0509324073791504px"></polygon><path d="M353.31,417.92l1.76,5.87a9.59,9.59,0,0,0,4.67,5.68c3,1.57,6.83,3.72,7.11,4.42.46,1.15,0,4.84,0,4.84H339.63s-.7-.27-.7-4.89c0-2.09,1.5-7,1.5-7l.27-8.87Z" style="fill:#fff;stroke:#263238;stroke-linecap:round;stroke-linejoin:round;stroke-width:1.0509324073791504px"></path><path d="M339.63,438.73h27.22a26.71,26.71,0,0,0,.19-3.64H339C339.07,438.5,339.63,438.73,339.63,438.73Z" style="fill:#fff;stroke:#263238;stroke-linecap:round;stroke-linejoin:round;stroke-width:1.0509324073791504px"></path><path d="M298.82,417.92l-1.76,5.87a9.59,9.59,0,0,1-4.67,5.68c-3,1.57-6.83,3.72-7.11,4.42-.46,1.15,0,4.84,0,4.84H312.5s.69-.27.69-4.89c0-2.09-1.49-7-1.49-7l-.27-8.87Z" style="fill:#fff;stroke:#263238;stroke-linecap:round;stroke-linejoin:round;stroke-width:1.0509324073791504px"></path><path d="M312.5,438.73H285.28a26.71,26.71,0,0,1-.19-3.64h28.08C313.06,438.5,312.5,438.73,312.5,438.73Z" style="fill:#fff;stroke:#263238;stroke-linecap:round;stroke-linejoin:round;stroke-width:1.0509324073791504px"></path><path d="M297.05,205.41s-6.49,2-7.6,4.69S280.73,257,281,260.17s5.59,6.7,8.94,4.47,9.17-27,9.17-27" style="fill:#fff;stroke:#263238;stroke-linecap:round;stroke-linejoin:round;stroke-width:1.0509324073791504px"></path><path d="M283.55,241.82c-1.51,9.18-2.69,17.09-2.6,18.35.23,3.13,5.59,6.7,8.94,4.47,1.92-1.28,4.65-9.95,6.62-17.14Z" style="fill:#fff;stroke:#263238;stroke-linecap:round;stroke-linejoin:round;stroke-width:1.0509324073791504px"></path><path d="M281.55,255.3s-.67,5.85-1.12,10.58,5.4,34,5.4,34l6.52.45S293,277.12,293,272s.45-15.52.45-15.52" style="fill:#fff;stroke:#263238;stroke-linecap:round;stroke-linejoin:round;stroke-width:1.0509324073791504px"></path><path d="M293.92,297.37s-6.52-.68-8.09,0a15,15,0,0,0-2.25,1.12l1.57,2.93a4.27,4.27,0,0,0,0,1.8,9.47,9.47,0,0,0,.9,2,64.93,64.93,0,0,0-1.12,7c0,1.58-.68,4.05.22,5.18s5.62,2.47,5.62,2.47a1.76,1.76,0,0,0,1.58-.45c.67-.67,2.47-.22,4-2.25s2-2.47,2-3.82-3.15-8.1-3.15-8.1,1.58-1.57.45-2.7-2.47-.9-2.47-1.57a9.1,9.1,0,0,1,.67-2.25Z" style="fill:#6699CC;stroke:#263238;stroke-linecap:round;stroke-linejoin:round;stroke-width:1.0509324073791504px"></path><line x1="296.85" y1="313.34" x2="293.47" y2="314.91" style="fill:#fff;stroke:#263238;stroke-linecap:round;stroke-linejoin:round;stroke-width:1.0509324073791504px"></line><path d="M295.72,314.46s.45,2.25-.22,3.15" style="fill:#fff;stroke:#263238;stroke-linecap:round;stroke-linejoin:round;stroke-width:1.0509324073791504px"></path><path d="M295.89,233.45c2.11,16,4.67,37.53,5.85,38.56,1.79,1.57,40,1.57,41.57.45a7.4,7.4,0,0,0,2.9-5.81c0-2.46,9.84-47.83,10.51-51.18s1.78-5.59-.67-7.82S342,197.81,335,195.8s-18.55,1.79-18.55,1.79-11.85,4.47-17.43,6.7a11.61,11.61,0,0,0-4.25,2.79" style="fill:#fff;stroke:#263238;stroke-linecap:round;stroke-linejoin:round;stroke-width:1.0509324073791504px"></path><rect x="318.05" y="235.58" width="11.62" height="18.33" style="fill:#6699CC;stroke:#263238;stroke-linecap:round;stroke-linejoin:round;stroke-width:1.0509324073791504px"></rect><path d="M315.82,207.65l8,28.16,10.28-29.95s-3.57-5.59-8-6S317.38,203.62,315.82,207.65Z" style="fill:#fff;stroke:#263238;stroke-linecap:round;stroke-linejoin:round;stroke-width:1.0509324073791504px"></path><path d="M321.63,192.23s-6.48,1.11-7.38,3.8-1.11,13.4-1.34,16.09-2.68,4.24-1.56,4.24,2-1.56,4.69-3.13a20.26,20.26,0,0,1,7.82-2.45c1.34,0,6.26.44,8.72,2.45s3.58,3.36,4.92,2.46-1.12-2-.9-4.24,2.24-9.84,1.34-14.75S329,191.11,327,191.11A22.63,22.63,0,0,0,321.63,192.23Z" style="fill:#fff;stroke:#263238;stroke-linecap:round;stroke-linejoin:round;stroke-width:1.0509324073791504px"></path><path d="M318.05,190.21s0,9.17,1.34,13.19,3.8,12.29,5.59,11.62,7.82-12.29,8.49-14.52.9-13,.9-13S325.43,192.23,318.05,190.21Z" style="fill:#fff;stroke:#263238;stroke-linecap:round;stroke-linejoin:round;stroke-width:1.0509324073791504px"></path><path d="M339.73,170.77s1.12,5.59-.45,7.82-3.12,1.57-3.12,1.57-.67,7.6-3.13,10.05-8.94,6.26-12.52,4.47-6.26-8.26-6.93-12.29-1.34-10.95-1.34-10.95,2.68-3.35,8.94-3.8a14.84,14.84,0,0,1,10.51,3.13c1.11.67,4.47-1.34,6-1.34A2.1,2.1,0,0,1,339.73,170.77Z" style="fill:#fff;stroke:#263238;stroke-linecap:round;stroke-linejoin:round;stroke-width:1.0509324073791504px"></path><path d="M331.46,186.42c-1.12-.9-.67-5.82,0-7.6s3.58-2.46,3.58-2.46-8.49-1.12-13.19-1.57a21.64,21.64,0,0,0-9.09,1.45c.23,2.06.53,4.38.82,6.15.67,4,3.36,10.51,6.93,12.29,3.13,1.57,8.5-1.15,11.43-3.5a17.07,17.07,0,0,0,2.2-3c1.12-2,1.79-7.15,1.79-7.15S332.58,187.31,331.46,186.42Z" style="fill:#6699CC;stroke:#263238;stroke-linecap:round;stroke-linejoin:round;stroke-width:1.0509324073791504px"></path><path d="M318.17,173.34c0,.73-.45,1.33-1,1.33a1.2,1.2,0,0,1-1-1.33c0-.74.45-1.34,1-1.34S318.17,172.6,318.17,173.34Z" style="fill:#263238"></path><path d="M326.57,173.47c0,.74-.44,1.33-1,1.33s-1-.59-1-1.33.45-1.33,1-1.33S326.57,172.73,326.57,173.47Z" style="fill:#263238"></path><path d="M332.8,171.44s1.57,6,2.24,4.92,1.34-5.37,1.34-5.37Z" style="fill:#263238;stroke:#263238;stroke-linecap:round;stroke-linejoin:round;stroke-width:1.0509324073791504px"></path><path d="M312.69,168.76s-.67-8.27-.67-11.4,5.81-7.82,13-7.82,14,4.58,14.53,5.36c1.48,2.42.22,15.87.22,15.87l-4.92,1.79s-5.81-5.14-9.38-5.59S312.69,168.76,312.69,168.76Z" style="fill:#263238;stroke:#263238;stroke-linecap:round;stroke-linejoin:round;stroke-width:1.0509324073791504px"></path><path d="M311.12,169s7.6-4.69,13.64-3.35,10.05,6.93,10.05,6.93-1.11,1.79-4.91,1.34-4.7-4-8.49-3.58-7.83,3.36-10.29,3.36S311.12,169,311.12,169Z" style="fill:#263238;stroke:#263238;stroke-linecap:round;stroke-linejoin:round;stroke-width:1.0509324073791504px"></path><path d="M314,167.33s7.6-6.56,18.66,2.07" style="fill:none;stroke:#6b6b6b;stroke-linecap:round;stroke-linejoin:round;stroke-width:1.0509324073791504px"></path><path d="M357,208.3s3.19,3.52,3.94,6.75,9.36,37.76,8.66,39.92-7.13,5.25-10.43,4.65-11.63-22-11.63-22" style="fill:#fff;stroke:#263238;stroke-linecap:round;stroke-linejoin:round;stroke-width:1.0509324073791504px"></path><path d="M369.57,255c.32-1-1.33-8.86-3.28-17.36l-15.44,8c2.69,6.16,6.35,13.66,8.29,14C362.44,260.22,368.87,257.14,369.57,255Z" style="fill:#fff;stroke:#263238;stroke-linecap:round;stroke-linejoin:round;stroke-width:1.0509324073791504px"></path><path d="M357,251.27l-17.84,22,2.79,5s14.21-10.05,18.89-13.56,8.55-7.79,8.88-10.67a11.16,11.16,0,0,0-.93-5.51" style="fill:#fff;stroke:#263238;stroke-linecap:round;stroke-linejoin:round;stroke-width:1.0509324073791504px"></path><path d="M339.86,282.36s1.66-.71,2.37-1.07.35-1.09.93-2.15,2.32-.63,2.67-1.71-1.71-4.7-4.07-5.65-3.7-1.1-3.78-.43a4.85,4.85,0,0,1-.87,1.7l-2,2-.9,1.92s-7.93,2.46-10.48,3.07,3.66,5.37,6,6.32,4.29,1.84,5.23,1.5S339.86,282.36,339.86,282.36Z" style="fill:#6699CC;stroke:#263238;stroke-linecap:round;stroke-linejoin:round;stroke-width:1.0509324073791504px"></path><polygon points="314.41 272.9 332.71 285.81 307.12 302.88 289.49 288.01 314.41 272.9" style="fill:#fff;stroke:#263238;stroke-linecap:round;stroke-linejoin:round;stroke-width:1.0509324073791504px"></polygon><polygon points="318.4 276.65 319.93 275.77 326.3 280.16 324.32 281.04 318.4 276.65" style="fill:#fff;stroke:#263238;stroke-linecap:round;stroke-linejoin:round;stroke-width:1.0509324073791504px"></polygon><polygon points="315.32 275.11 294.03 287.4 307.42 298.6 329.15 285.21 315.32 275.11" style="fill:#fff;stroke:#263238;stroke-linecap:round;stroke-linejoin:round;stroke-width:1.0509324073791504px"></polygon><path d="M335.58,278.49s-4.8-3.25-6.65-2.79-4.93,3.71-5.23,4.35-3.8,1.81-3.66,2.5,2.54,1.41,3.92,1.12,7-2.56,7-2.56" style="fill:#6699CC;stroke:#263238;stroke-linecap:round;stroke-linejoin:round;stroke-width:1.0509324073791504px"></path></g><g id="freepik--Box--inject-14"><rect x="343.85" y="278.29" width="87.58" height="160.44" style="fill:#6699CC;stroke:#263238;stroke-linecap:round;stroke-linejoin:round;stroke-width:1.0509324073791504px"></rect><rect x="351.56" y="305.82" width="43.44" height="51.15" style="fill:#fff"></rect><rect x="381.86" y="278.29" width="11.56" height="9.11" style="fill:#fff;stroke:#263238;stroke-linecap:round;stroke-linejoin:round;stroke-width:1.0509324073791504px"></rect><polygon points="379.08 327.33 373.41 315.05 367.74 327.33 371.06 327.33 371.06 346.74 375.76 346.74 375.76 327.33 379.08 327.33" style="fill:#263238"></polygon><polygon points="393.16 327.33 387.49 315.05 381.82 327.33 385.14 327.33 385.14 346.74 389.84 346.74 389.84 327.33 393.16 327.33" style="fill:#263238"></polygon><path d="M354.82,315.45h10.42a0,0,0,0,1,0,0v13.41a4.31,4.31,0,0,1-4.31,4.31h-1.81a4.31,4.31,0,0,1-4.31-4.31V315.45A0,0,0,0,1,354.82,315.45Z" style="fill:#263238"></path><rect x="359.25" y="328.73" width="1.56" height="17.22" style="fill:#263238"></rect><rect x="355.34" y="344.13" width="9.38" height="2.34" style="fill:#263238"></rect></g><g id="freepik--character-1--inject-14"><path d="M238.79,183.54s-1.12,7.82-7.6,10.28-24.36,11.62-25,19.45,9.39,16.09,3.8,21.23S195.88,245.45,197.44,256s12.29,17.21,21.9,15.65,13.19-4.25,16.32-13.86-2-21.9,0-26.6,7.15-6.48,6.26-14.3-6.93-13.63-5.37-19.44a22.2,22.2,0,0,1,4.25-8.72Z" style="fill:#263238;stroke:#263238;stroke-linecap:round;stroke-linejoin:round;stroke-width:1.0509324073791504px"></path><path d="M216.3,256.08a4.53,4.53,0,0,0-.78,3.51" style="fill:none;stroke:#6b6b6b;stroke-linecap:round;stroke-linejoin:round;stroke-width:1.0509324073791504px"></path><path d="M217.24,208.44c-4.65,3.27-6.91,6.9-4.83,10.38,3.11,5.18,13.13,14.16,2.42,20S198.59,262.7,210,268.57s17.28-6.91,15.21-12.44a4,4,0,0,0-4.15-2.71" style="fill:none;stroke:#6b6b6b;stroke-linecap:round;stroke-linejoin:round;stroke-width:1.0509324073791504px"></path><path d="M234.53,195.67s.69,4.14-9,8.29c-1,.43-2,.89-2.95,1.35" style="fill:none;stroke:#6b6b6b;stroke-linecap:round;stroke-linejoin:round;stroke-width:1.0509324073791504px"></path><path d="M235.22,201.19s.34,5.88-4.49,8.3-7.61,10.71-4.15,14.16" style="fill:none;stroke:#6b6b6b;stroke-linecap:round;stroke-linejoin:round;stroke-width:1.0509324073791504px"></path><path d="M266.75,306s.6,7.47-.29,22.39-8.36,37.92-8.66,41.2-3.88,14-4.18,21.79-4.75,21.34-5.06,22.8c-.55,2.6-2.5,11-2.5,11s6.54,5.79,8.93,7.58,7.89,2.94,6.69,5.42c-.47,1-24.18-1.2-24.18-1.2s-1.79-3.88-.9-6.87a77,77,0,0,0,1.79-8.91c.3-1.79.3-13.14.3-19.71s-.89-15.22.6-21.79a92.12,92.12,0,0,1,5.37-14.93s1.5-6.56.6-20.3-4.78-34.92-4.78-34.92S259.59,310.45,266.75,306Z" style="fill:#fff;stroke:#263238;stroke-linecap:round;stroke-linejoin:round;stroke-width:1.0509324073791504px"></path><path d="M255,432.77c-2.39-1.79-8.45-6.61-8.45-6.61s.05-.29.15-.76c-.57.05-1.25.27-1.25,1.13v4.4a16.73,16.73,0,0,1-8.53-1.92c-.1.38-.2.75-.31,1.11-.89,3,.9,6.87.9,6.87s23.71,2.16,24.18,1.19C262.88,435.71,257.37,434.56,255,432.77Z" style="fill:#fff;stroke:#263238;stroke-linecap:round;stroke-linejoin:round;stroke-width:1.0509324073791504px"></path><path d="M251,405.13c1.23-4.54,2.5-9.89,2.65-13.78.3-7.76,3.88-18.51,4.18-21.79s7.76-26.27,8.66-41.2.29-22.39.29-22.39c-7.16,4.48-26.27,3.59-26.27,3.59s3.88,21.19,4.78,34.92-.6,20.3-.6,20.3a92.12,92.12,0,0,0-5.37,14.93c-1.49,6.57-.6,15.23-.6,21.79v3.58A26.45,26.45,0,0,0,251,405.13Z" style="fill:#263238;stroke:#263238;stroke-linecap:round;stroke-linejoin:round;stroke-width:1.0509324073791504px"></path><path d="M223.77,307.47s1.19,11.64,5.67,20.89,17.91,33.74,17.91,33.74S235.11,375.23,233,382.7s-8.66,29.55-10.15,33.13-7.76,7.47-5.67,10.45,9.25,6.87,12.54,9.56,9.85,3.28,11.34,2.68-1.79-3-3.58-5.37-6.27-10.45-6.27-11.94v-3.29s26-40.3,27.76-44.78,3.88-8.65,3.58-11.34-8.95-54.63-8.95-54.63Z" style="fill:#fff;stroke:#263238;stroke-linecap:round;stroke-linejoin:round;stroke-width:1.0509324073791504px"></path><path d="M241.08,438.52c1.49-.59-1.79-3-3.58-5.37s-6.27-10.45-6.27-11.94v-.8c-1.13-.61-2.73-1.06-3.29.8l-.89,3-6.14-5.46c-2.28,2.69-5.25,5.36-3.71,7.55,2.09,3,9.25,6.87,12.54,9.56S239.59,439.12,241.08,438.52Z" style="fill:#fff;stroke:#263238;stroke-linecap:round;stroke-linejoin:round;stroke-width:1.0509324073791504px"></path><path d="M262.57,361.8c-.29-2.69-8.95-54.63-8.95-54.63l-29.85.3s1.19,11.64,5.67,20.89,17.91,33.74,17.91,33.74S235.11,375.23,233,382.7c-1,3.48-2.93,10.15-4.88,16.64a30.27,30.27,0,0,0,10.82,6.5c7.81-12.26,18.88-29.83,20-32.7C260.78,368.67,262.87,364.49,262.57,361.8Z" style="fill:#263238;stroke:#263238;stroke-linecap:round;stroke-linejoin:round;stroke-width:1.0509324073791504px"></path><path d="M255.52,217.66s7.71,11.75,9.63,16.76,5.21,16,4.43,20.24-7.13,14.83-7.13,17,6,33.92,6,33.92-.19,2.89-9.64,5.78-19.84,1.92-27,.58-10-4.24-10-4.24,11.94-39.7,11.94-41.43-4.43-22.16-6-27.17-1.93-7.9,1-12,15.8-8.67,18.89-10.4S254.55,215.16,255.52,217.66Z" style="fill:#fff;stroke:#263238;stroke-linecap:round;stroke-linejoin:round;stroke-width:1.0509324073791504px"></path><path d="M254.55,212.07s4.24,4.43,6,5.78,1.92,7.13,2.31,8.1.58,1.92,0,1.73-2.31-4.43-2.31-4.43l.19,2.7s-6.55-8.1-7.32-9.45S254.55,212.07,254.55,212.07Z" style="fill:#fff;stroke:#263238;stroke-linecap:round;stroke-linejoin:round;stroke-width:1.0509324073791504px"></path><line x1="260.53" y1="223.25" x2="261.11" y2="218.62" style="fill:#fff;stroke:#263238;stroke-linecap:round;stroke-linejoin:round;stroke-width:1.0509324073791504px"></line><path d="M246.46,166s-7.13,2.31-8.48,9.25,1.93,15.22,3.86,20.42,2.5,6.75,2.12,10.6a61.19,61.19,0,0,1-2.12,9.44s6.93,8.29,8.67,12.91,8.48,11.57,10.79,11,2.31-6-.39-12.14-6.55-9.44-6.55-12,1.54-7.13,1.54-7.13,5.21,3.47,6.94,2.7,5.78-10.6,6.74-13.1-1.92-6.17-.77-7.9,3.66-3.86,2.89-7.71-1.92-12-7.32-15.8S249.54,163.9,246.46,166Z" style="fill:#fff;stroke:#263238;stroke-linecap:round;stroke-linejoin:round;stroke-width:1.0509324073791504px"></path><path d="M247.62,222.48s7.9,13.68,10.79,20.62,4,18.3,2.89,22.35-5.59,26-5,32.18S257.64,319,257.64,319s-5.78,1-19.46-1.55a123,123,0,0,1-22.93-6.35s15.8-43.94,15.8-45.29,1-12.91-2.89-20-6.94-14.26-4.24-16.95,16.38-14.26,16.38-14.26Z" style="fill:#6699CC;stroke:#263238;stroke-linecap:round;stroke-linejoin:round;stroke-width:1.0509324073791504px"></path><path d="M264.38,166.6c-5.39-3.86-14.84-2.7-17.92-.58,0,0-7.13,2.31-8.48,9.25s1.93,15.22,3.86,20.42c.68,1.86,1.2,3.24,1.56,4.44a2,2,0,0,0,.75-.2c3.66-1.73,2.31-6.93,6.94-9.44,3.76-2,15.57-9.32,19.83-12C270,174.5,268.33,169.42,264.38,166.6Z" style="fill:#263238;stroke:#263238;stroke-linecap:round;stroke-linejoin:round;stroke-width:1.0509324073791504px"></path><path d="M268.73,175.28s-15.2,13.82-27,15.55" style="fill:none;stroke:#6b6b6b;stroke-linecap:round;stroke-linejoin:round;stroke-width:1.0509324073791504px"></path><path d="M259.35,175.18c-6.08,3-14.5,7.61-18.26,11.16" style="fill:none;stroke:#6b6b6b;stroke-linecap:round;stroke-linejoin:round;stroke-width:1.0509324073791504px"></path><path d="M266.31,171.82s-1.18.54-3.06,1.45" style="fill:none;stroke:#6b6b6b;stroke-linecap:round;stroke-linejoin:round;stroke-width:1.0509324073791504px"></path><path d="M265,190.68l-.19,2.7a3.16,3.16,0,0,1-3.47,0" style="fill:none;stroke:#263238;stroke-linecap:round;stroke-linejoin:round;stroke-width:1.0509324073791504px"></path><path d="M266.69,187.79a4.41,4.41,0,0,0-5.2-.77" style="fill:none;stroke:#263238;stroke-linecap:round;stroke-linejoin:round;stroke-width:1.0509324073791504px"></path><path d="M269.64,195.62c-1.05.35-4.62,1.23-10.08-.7-6.55-2.31-10.4-3.85-10.4-3.85s-2.12-1-2.89.77-.19,3.47,1.73,6,7.9,10.6,7.9,10.6,5.21,3.47,6.94,2.7,5.78-10.6,6.74-13.1A4.29,4.29,0,0,0,269.64,195.62Zm-16.43,6c-.39,1-5.21-5.21-6.17-7.13s1.35-3.28,3.28-1.74l4,2.12S253.59,200.7,253.21,201.67Z" style="fill:#6699CC;stroke:#263238;stroke-linecap:round;stroke-linejoin:round;stroke-width:1.0509324073791504px"></path><path d="M250.89,194.15s-1-6.55-3.47-6.93-2.31,5-1.15,7.32a3.83,3.83,0,0,0,3.85,1.92" style="fill:#fff;stroke:#263238;stroke-linecap:round;stroke-linejoin:round;stroke-width:1.0509324073791504px"></path><path d="M241.64,209s5.21,6.55,6,7.71,6.55,8.67,6.55,8.67l-4.24,6.93s-.39-.19-.77-1.92-9.25-12.91-9.44-13.49a7.36,7.36,0,0,0-1.54-1.73Z" style="fill:#fff;stroke:#263238;stroke-linecap:round;stroke-linejoin:round;stroke-width:1.0509324073791504px"></path><path d="M309.74,280.74a1,1,0,0,1-.91-.53l-5.61-9.81a1.05,1.05,0,0,1,1.83-1l5.6,9.81a1,1,0,0,1-.39,1.43A1,1,0,0,1,309.74,280.74Z" style="fill:#fff;stroke:#263238;stroke-linecap:round;stroke-linejoin:round;stroke-width:1.0509324073791504px"></path><path d="M232.83,222.28s-10.5,6.95-11.42,8.64,20.1,42.7,21.81,47.65,2.61,9,3.2,9.34,51.21-2.27,51.21-2.27,7.13-.05,8.83-1.26a10.24,10.24,0,0,0,2.76-3.76s1.92-.25,1.87-1.79.12-2.32-.65-2.3-6-1.72-8.15-1.46-8.29,5.87-8.29,5.87-19.56-2.83-26.17-4.34-11.07-2.53-11.07-2.53l-8.87-34.86" style="fill:#6699CC;stroke:#263238;stroke-linecap:round;stroke-linejoin:round;stroke-width:1.0509324073791504px"></path><path d="M260.61,287.46c15.16-.68,37-1.82,37-1.82s7.13-.05,8.83-1.26a10.24,10.24,0,0,0,2.76-3.76s1.92-.25,1.87-1.79.12-2.32-.65-2.3-6-1.72-8.15-1.46-8.29,5.87-8.29,5.87-19.56-2.83-26.17-4.34l-5.64-1.29Z" style="fill:#fff;stroke:#263238;stroke-linecap:round;stroke-linejoin:round;stroke-width:1.0509324073791504px"></path><polygon points="260.05 274.54 259.13 287.49 264.74 287.88 265.89 276.28 260.05 274.54" style="fill:#fff;stroke:#263238;stroke-linecap:round;stroke-linejoin:round;stroke-width:1.0509324073791504px"></polygon></g><g id="freepik--Plants--inject-14"><path d="M105.6,306.79c.05,0,1-3.71,1.05-4,.39-2.82-.51-8.48-3.37-9.86a3.76,3.76,0,0,0-5.12,2.26c-.77,2.11.21,4.7,1.36,6.48C100.87,303.81,105.6,306.79,105.6,306.79Z" style="fill:#263238"></path><path d="M122.26,286.56c-3.16-.34-6.92,4-8.07,6.59-.1.22-1.26,3.91-1.2,3.91h.06c-.59.68-1.23,1.41-1.9,2.23-1.24,1.52-2.62,3.25-4,5.23a66.6,66.6,0,0,0-4.15,6.6,49.25,49.25,0,0,0-3.54,8l0,.1c0-.93,0-3.54-.05-3.74-.37-2.81-2.73-8-5.85-8.62a3.75,3.75,0,0,0-4.34,3.54c-.19,2.24,1.43,4.48,3,5.89,1.78,1.59,6.73,3.14,7.13,3.26a65.66,65.66,0,0,0-2.1,8.64c-.3,1.7-.55,3.42-.78,5.15,0-.8,0-1.53,0-1.63-.36-2.81-2.72-8-5.85-8.62a3.77,3.77,0,0,0-4.34,3.54c-.18,2.24,1.44,4.48,3,5.89s5.8,2.84,6.92,3.19c-.08.67-.17,1.33-.25,2-.38,3.19-.75,6.37-1.21,9.49-.16,1.09-.35,2.17-.55,3.25,0-.72,0-1.32,0-1.41-.36-2.82-2.72-8-5.85-8.62a3.76,3.76,0,0,0-4.34,3.53c-.18,2.24,1.44,4.48,3,5.89s5.39,2.7,6.72,3.13c-.24,1.09-.47,2.19-.74,3.24-.2.72-.35,1.42-.59,2.13s-.46,1.4-.68,2.09c-.48,1.31-1,2.67-1.46,3.94-.34.88-.68,1.72-1,2.56.17-1.09.46-3.23.47-3.41a14.69,14.69,0,0,0-2-7.11,4.57,4.57,0,0,0-.05-.83,3.76,3.76,0,0,0-4.6-3.19c-3.08.81-5,6.21-5.17,9,0,.17.1,2,.19,3.15-.16-.67-.3-1.32-.47-2-.32-1.36-.68-2.7-1.07-4.15l-.63-2.11c-.2-.7-.5-1.42-.74-2.15-.61-1.66-1.31-3.31-2-5,1.19-.29,5.4-1.36,7.09-2.66s3.47-3.4,3.45-5.65A3.75,3.75,0,0,0,79.57,337c-3.16.34-5.91,5.38-6.48,8.16,0,.17-.22,2.22-.3,3.34-.46-1-.9-2-1.39-3C70,342.71,68.47,339.87,67,337c-.46-.87-.91-1.74-1.36-2.61.43-.1,5.46-1.27,7.35-2.72,1.68-1.29,3.47-3.4,3.45-5.65a3.76,3.76,0,0,0-4.06-3.85c-3.16.34-5.91,5.38-6.48,8.16,0,.21-.31,3.15-.34,3.9-1-1.92-2-3.84-2.86-5.77a67,67,0,0,1-3.1-8c.2-.05,5.45-1.24,7.39-2.73,1.69-1.29,3.47-3.41,3.45-5.65a3.75,3.75,0,0,0-4.06-3.85c-3.16.34-5.9,5.38-6.48,8.16,0,.18-.24,2.42-.31,3.49l-.18,0a47.89,47.89,0,0,1-1.62-8.5c-.18-1.58-.26-3.1-.3-4.58,1-.12,5.57-.73,7.46-1.87s3.82-3,4-5.24a3.75,3.75,0,0,0-3.61-4.27c-3.18,0-6.46,4.7-7.34,7.4,0,.14-.37,1.69-.58,2.82,0-.67,0-1.36,0-2,0-2.4.15-4.6.3-6.55.1-1.11.21-2.11.32-3,.92-.64,4.59-3.23,5.73-5.09s2-4.42,1.18-6.51a3.76,3.76,0,0,0-5.18-2.13c-2.83,1.46-3.57,7.15-3.1,9.95,0,.24,1.1,3.95,1.15,3.92l.06,0c-.13.9-.25,1.86-.36,2.92-.19,1.95-.4,4.15-.45,6.56a67.15,67.15,0,0,0,.18,7.8,49.5,49.5,0,0,0,1.45,8.61l0,.1c-.5-.79-2-2.94-2.1-3.09-1.86-2.15-6.71-5.21-9.64-4a3.76,3.76,0,0,0-1.67,5.34c1.08,2,3.67,2.94,5.77,3.25,2.37.34,7.35-1.1,7.74-1.22a65.68,65.68,0,0,0,3,8.36c.68,1.59,1.42,3.16,2.18,4.74-.45-.67-.86-1.26-.93-1.34-1.86-2.15-6.71-5.2-9.64-4a3.77,3.77,0,0,0-1.67,5.35c1.09,2,3.67,2.94,5.77,3.24s6.4-.83,7.53-1.15l.89,1.8c1.44,2.87,2.9,5.73,4.23,8.58.48,1,.9,2,1.34,3-.41-.59-.75-1.08-.81-1.15-1.86-2.15-6.71-5.21-9.64-4a3.76,3.76,0,0,0-1.67,5.34c1.08,2,3.67,2.94,5.77,3.25s6-.73,7.32-1.1c.42,1,.83,2.09,1.18,3.12.22.7.49,1.37.68,2.09s.39,1.42.59,2.12c.32,1.36.67,2.76,1,4.09.21.93.38,1.81.57,2.7-.46-1-1.4-2.95-1.5-3.1-1.51-2.41-5.84-6.16-8.92-5.38a3.76,3.76,0,0,0-2.46,5c.77,2.11,3.18,3.47,5.21,4.09,2.23.68,7.18.06,7.79,0,.3,1.48.57,2.92.81,4.28.83,4.72,1.35,8.69,1.67,11.46,0,.5.1.94.15,1.35H69.66l2.84,55.39H90.12L93,383.34H84l.2-.41c1.22-2.54,2.92-6.21,4.75-10.69.58-1.41,1.17-2.94,1.77-4.51.6.13,5.49,1.12,7.77.61,2.07-.47,4.58-1.64,5.5-3.69a3.76,3.76,0,0,0-2.07-5.2c-3-1-7.62,2.41-9.3,4.7-.1.13-1,1.72-1.58,2.72.24-.64.48-1.26.72-1.93.48-1.31.92-2.63,1.4-4.05l.63-2.11c.23-.69.37-1.46.57-2.2.41-1.72.74-3.48,1-5.27,1.15.42,5.25,1.85,7.38,1.7s4.77-.93,6-2.81a3.75,3.75,0,0,0-1.26-5.45c-2.83-1.46-7.89,1.22-9.91,3.23-.12.12-1.4,1.72-2.09,2.61.17-1.07.34-2.14.48-3.23.39-3.16.69-6.36,1-9.55.09-1,.2-2,.3-2.93.41.15,5.25,1.95,7.63,1.79,2.11-.15,4.77-.93,6-2.81a3.76,3.76,0,0,0-1.26-5.46c-2.83-1.45-7.89,1.23-9.91,3.24-.15.15-2,2.45-2.43,3.06.23-2.15.47-4.29.8-6.39a67,67,0,0,1,1.83-8.39c.19.07,5.24,2,7.67,1.8,2.12-.15,4.77-.93,6-2.81a3.76,3.76,0,0,0-1.27-5.45c-2.82-1.46-7.89,1.23-9.9,3.23-.13.13-1.54,1.89-2.19,2.74l-.16-.09a48.62,48.62,0,0,1,3.34-8c.72-1.42,1.49-2.73,2.27-4,.9.45,5,2.47,7.26,2.55s4.84-.39,6.27-2.13a3.76,3.76,0,0,0-.66-5.56c-2.65-1.76-8,.36-10.2,2.13-.12.09-1.24,1.21-2,2,.36-.56.72-1.15,1.07-1.68,1.33-2,2.67-3.76,3.88-5.3.69-.87,1.33-1.65,1.93-2.37,1.12,0,5.62-.15,7.59-1.08s4.11-2.58,4.58-4.78A3.77,3.77,0,0,0,122.26,286.56Zm-35,84.95c-1.91,4.39-3.67,8-4.93,10.48-.25.5-.48.94-.7,1.35h-.21c-.06-.48-.13-1-.21-1.61-.39-2.8-1-6.79-1.94-11.54-.29-1.5-.64-3.1-1-4.74a40,40,0,0,0,4.35-2.05c1.63,1.77,5.8,3.83,6.34,4.09C88.37,368.89,87.81,370.24,87.25,371.51Z" style="fill:#263238"></path><path d="M49.14,305.56c2.28,1,7.87.87,7.87.87s-1.2-3.65-1.3-3.87c-1.23-2.57-5.1-6.8-8.25-6.37a3.76,3.76,0,0,0-3,4.72C45,303.09,47.2,304.71,49.14,305.56Z" style="fill:#263238"></path></g><g id="freepik--Floor--inject-14"><line x1="457" y1="438.73" x2="57.65" y2="438.73" style="fill:#fff;stroke:#263238;stroke-linecap:round;stroke-linejoin:round;stroke-width:1.0509324073791504px"></line></g></svg>