<svg xmlns="http://www.w3.org/2000/svg" viewBox="0 0 500 500"><g id="freepik--Floor--inject-4"><path id="freepik--floor--inject-4" d="M77.66,437.79c-95.18-55-95.18-144,0-199s249.5-55,344.68,0,95.18,144,0,199S172.84,492.74,77.66,437.79Z" style="fill:#f5f5f5"></path></g><g id="freepik--Stars--inject-4"><g id="freepik--stars--inject-4"><path id="freepik--Star--inject-4" d="M148.66,78.89l-.46,3.17,2.35,2.18a.42.42,0,0,1-.22.72l-3.15.54-1.35,2.9a.41.41,0,0,1-.74,0l-1.49-2.83-3.18-.38a.42.42,0,0,1-.25-.71l2.24-2.29-.63-3.14a.42.42,0,0,1,.6-.45L145.25,80l2.8-1.56A.41.41,0,0,1,148.66,78.89Z" style="fill:#e0e0e0"></path><path id="freepik--star--inject-4" d="M376.44,160.13l.13,4.76,4,2.59a.62.62,0,0,1-.13,1.1l-4.49,1.6-1.24,4.6a.61.61,0,0,1-1.08.21l-2.91-3.78-4.75.25a.61.61,0,0,1-.54-1l2.69-3.93-1.7-4.45a.61.61,0,0,1,.75-.81l4.57,1.35,3.7-3A.61.61,0,0,1,376.44,160.13Z" style="fill:#f0f0f0"></path><path id="freepik--star--inject-4" d="M112.61,125.43l-.88,6.06,4.49,4.16a.79.79,0,0,1-.4,1.36l-6,1-2.56,5.56a.8.8,0,0,1-1.43,0L103,138.22l-6.08-.73a.79.79,0,0,1-.47-1.34l4.27-4.38-1.19-6a.79.79,0,0,1,1.13-.86l5.49,2.71,5.34-3A.79.79,0,0,1,112.61,125.43Z" style="fill:#e0e0e0"></path><path id="freepik--star--inject-4" d="M355.87,47.4l.16,6.12,5.13,3.33a.79.79,0,0,1-.16,1.41l-5.77,2.05-1.59,5.91a.79.79,0,0,1-1.39.28l-3.73-4.86-6.11.32a.79.79,0,0,1-.7-1.24l3.47-5L343,50a.79.79,0,0,1,1-1l5.87,1.73,4.76-3.85A.79.79,0,0,1,355.87,47.4Z" style="fill:#e0e0e0"></path><path id="freepik--star--inject-4" d="M121.85,74.36l-1.74,12L129,94.56a1.57,1.57,0,0,1-.8,2.7l-11.93,2-5.08,11a1.57,1.57,0,0,1-2.81.07l-5.63-10.71-12-1.44a1.57,1.57,0,0,1-.94-2.65l8.45-8.66L95.89,75a1.57,1.57,0,0,1,2.23-1.71L109,78.67l10.57-5.9A1.56,1.56,0,0,1,121.85,74.36Z" style="fill:#f0f0f0"></path><path id="freepik--star--inject-4" d="M388,71.4l.24,9,7.52,4.89a1.16,1.16,0,0,1-.24,2.07l-8.46,3L384.71,99a1.17,1.17,0,0,1-2,.41l-5.46-7.12-9,.47a1.16,1.16,0,0,1-1-1.82l5.08-7.4-3.22-8.37a1.17,1.17,0,0,1,1.42-1.53l8.6,2.54,7-5.64A1.16,1.16,0,0,1,388,71.4Z" style="fill:#f0f0f0"></path></g></g><g id="freepik--Shadows--inject-4"><polygon id="freepik--Shadow--inject-4" points="19.93 244.24 70.27 273.31 123.45 242.65 72.97 213.65 19.93 244.24" style="fill:#e0e0e0"></polygon><polygon id="freepik--shadow--inject-4" points="5.6 277.05 34.97 294.01 65.99 276.13 36.54 259.21 5.6 277.05" style="fill:#e0e0e0"></polygon><path id="freepik--shadow--inject-4" d="M170.63,463.54a10.64,10.64,0,0,0,5.24-1.28l3.94-2.28a4.43,4.43,0,0,0,0-8.2l-51.94-30.06c4.63-5.14,6.69-10.93,6-16.85-.92-7.54-6.44-14.6-15.55-19.85-9.86-5.7-22.93-8.83-36.82-8.83s-27,3.13-36.82,8.83C34.52,390.86,29,398.72,29,407.15s5.57,16.28,15.69,22.13c9.86,5.69,22.93,8.82,36.81,8.82h0c13.37,0,26-2.91,35.74-8.22l47.56,32.06A10.81,10.81,0,0,0,170.63,463.54Z" style="fill:#e0e0e0"></path><path id="freepik--shadow--inject-4" d="M468.22,324.29c19.51-11.16,19.51-29.24,0-40.39s-51.14-11.15-70.65,0-19.51,29.23,0,40.39S448.71,335.44,468.22,324.29Z" style="fill:#e0e0e0"></path></g><g id="freepik--magnifying-glass--inject-4"><g id="freepik--magnifying-glass--inject-4"><path d="M36.81,393.81V406.2c0,6.72,4.45,13.45,13.33,18.58,17.78,10.26,46.6,10.26,64.38,0,8.89-5.13,13.33-11.86,13.33-18.58V393.81h0c0-6.73-4.44-13.45-13.33-18.58-17.78-10.27-46.6-10.27-64.38,0-8.88,5.13-13.33,11.85-13.33,18.58Zm86.64,0c0,5.38-4,10.62-11.13,14.77-7.94,4.58-18.59,7.11-30,7.11s-22-2.53-30-7.11c-7.18-4.15-11.14-9.39-11.14-14.77s4-10.63,11.14-14.77c7.93-4.59,18.58-7.11,30-7.11s22,2.52,30,7.11C119.5,383.18,123.45,388.43,123.45,393.81Z" style="fill:#6699CC"></path><path d="M114.52,375.23c-17.77-10.27-46.6-10.27-64.37,0s-17.78,26.9,0,37.16,46.6,10.26,64.37,0S132.3,385.49,114.52,375.23Zm-2.2,33.35c-7.94,4.58-18.59,7.11-30,7.11s-22-2.53-30-7.11c-7.18-4.15-11.13-9.39-11.13-14.77s4-10.63,11.13-14.77c7.94-4.59,18.59-7.11,30-7.11s22,2.52,30,7.11c7.18,4.14,11.13,9.39,11.13,14.77S119.5,404.43,112.32,408.58Z" style="fill:#fff;opacity:0.30000000000000004"></path><path d="M123.45,393.81a12.23,12.23,0,0,1-1.77,6.2c-1.81-3.13-5-6.06-9.36-8.58-7.94-4.59-18.59-7.11-30-7.11s-22,2.52-30,7.11C48,394,44.8,396.88,43,400a12.33,12.33,0,0,1-1.77-6.2c0-5.38,4-10.63,11.14-14.78,7.93-4.57,18.59-7.1,30-7.1s22,2.53,30,7.1C119.5,383.18,123.45,388.43,123.45,393.81Z" style="fill:#6699CC"></path><path d="M123.45,393.81a12.23,12.23,0,0,1-1.77,6.2c-1.81-3.13-5-6.06-9.36-8.58-7.94-4.59-18.59-7.11-30-7.11s-22,2.52-30,7.11C48,394,44.8,396.88,43,400a12.33,12.33,0,0,1-1.77-6.2c0-5.38,4-10.63,11.14-14.78,7.93-4.57,18.59-7.1,30-7.1s22,2.53,30,7.1C119.5,383.18,123.45,388.43,123.45,393.81Z" style="opacity:0.1"></path><path d="M112.32,384.65c-7.94-4.59-18.59-7.11-30-7.11s-22,2.52-30,7.11c-5.92,3.42-9.64,7.59-10.77,12,1.13,4.38,4.85,8.55,10.77,12,7.94,4.58,18.59,7.11,30,7.11s22-2.53,30-7.11c5.92-3.42,9.64-7.59,10.77-12C122,392.24,118.24,388.07,112.32,384.65Z" style="fill:#fff;opacity:0.6000000000000001"></path><path d="M93.06,419.36v12.38a59.78,59.78,0,0,0,21.46-7c8.89-5.13,13.33-11.86,13.33-18.59V393.81a15.68,15.68,0,0,0-.54-4.06h0c2.16,8-2.11,16.47-12.78,22.64A59.79,59.79,0,0,1,93.06,419.36Z" style="opacity:0.1"></path><path d="M113.17,420.28a7,7,0,0,1,3.16-5.54,2.27,2.27,0,0,1,2.25-.24h0l15.32,8.74h0a2.24,2.24,0,0,1,.94,2.06,7,7,0,0,1-3.17,5.53,2.22,2.22,0,0,1-2.25.24h0l-15.32-8.75h0A2.21,2.21,0,0,1,113.17,420.28Z" style="fill:#37474f"></path><path d="M114.12,422.34a2.21,2.21,0,0,1-1-2.06,5.83,5.83,0,0,1,.54-2.39l19.76,11.3a6.06,6.06,0,0,1-1.78,1.66,2.22,2.22,0,0,1-2.25.24l-15.32-8.75Z" style="fill:#263238"></path><path d="M129.11,430.81a9.15,9.15,0,0,1,4.12-7.21,2.94,2.94,0,0,1,2.88-.32h0l0,0h0L176,444.17l-7.58,13.4-38-24.08A2.87,2.87,0,0,1,129.11,430.81Z" style="fill:#6699CC"></path><path d="M168.39,457.57l-38-24.08a2.87,2.87,0,0,1-1.23-2.68,8.61,8.61,0,0,1,1.37-4.37l41.82,24.22Z" style="opacity:0.1"></path><path d="M172.22,457.16a12,12,0,0,0,5.41-9.45c0-3.47-2.46-4.87-5.46-3.12a12,12,0,0,0-5.4,9.45C166.78,457.51,169.22,458.91,172.22,457.16Z" style="fill:#6699CC"></path><g style="opacity:0.2"><path d="M172.22,457.16a12,12,0,0,0,5.41-9.45c0-3.47-2.46-4.87-5.46-3.12a12,12,0,0,0-5.4,9.45C166.78,457.51,169.22,458.91,172.22,457.16Z"></path></g></g></g><g id="freepik--Boxes--inject-4"><g id="freepik--boxes--inject-4"><g id="freepik--Box--inject-4"><polygon points="114.49 194.6 72.94 170.61 28.86 196.13 70.4 220.11 114.49 194.6" style="fill:#6699CC"></polygon><g style="opacity:0.8"><polygon points="114.49 194.6 72.94 170.61 28.86 196.13 70.4 220.11 114.49 194.6" style="fill:#fff"></polygon></g><polygon points="70.4 268.65 114.49 243.14 114.49 194.6 70.4 220.11 70.4 268.65" style="fill:#6699CC"></polygon><g style="opacity:0.6000000000000001"><polygon points="70.4 268.65 114.49 243.14 114.49 194.6 70.4 220.11 70.4 268.65" style="fill:#fff"></polygon></g><path d="M75.19,257.74a1.1,1.1,0,0,1-.57-.15A1.73,1.73,0,0,1,73.9,256v-4.65h0V251l.24.05,3.65-2.15v5.21a4.22,4.22,0,0,1-1.8,3.4A1.69,1.69,0,0,1,75.19,257.74Zm-.7-6V256a1.21,1.21,0,0,0,.42,1.08.82.82,0,0,0,.79-.09,3.68,3.68,0,0,0,1.51-2.89v-.39H75.85l-.26-1.82Zm1.87,1.44h.85v-3.22L75,251.2l1.08.2Z" style="fill:#455a64"></path><path d="M75.85,261.46a.29.29,0,0,1-.3-.3v-3.91a.3.3,0,0,1,.59,0v3.91A.29.29,0,0,1,75.85,261.46Z" style="fill:#455a64"></path><path d="M74.15,262.44a.3.3,0,0,1-.26-.15.29.29,0,0,1,.11-.4l3.4-2a.28.28,0,0,1,.4.11.28.28,0,0,1-.11.39l-3.4,2A.33.33,0,0,1,74.15,262.44Z" style="fill:#455a64"></path><path d="M86.26,255.7a.72.72,0,0,1-.32-.08.79.79,0,0,1-.35-.71v-.8a.29.29,0,0,1,.29-.29.3.3,0,0,1,.3.29v.8c0,.12,0,.19,0,.2a.25.25,0,0,0,.19-.05,1.7,1.7,0,0,0,.55-1.32v-5.21a.29.29,0,0,1,.58,0v5.21a2.2,2.2,0,0,1-.83,1.82A.82.82,0,0,1,86.26,255.7Z" style="fill:#455a64"></path><path d="M83.18,251.15v-.5a8.29,8.29,0,0,1,3.74-6.49,2.48,2.48,0,0,1,4,2.33v.17Zm5.49-6.94a2.94,2.94,0,0,0-1.46.46,7.75,7.75,0,0,0-3.42,5.45l6.58-3.8a2.17,2.17,0,0,0-.9-1.91A1.64,1.64,0,0,0,88.67,244.21Z" style="fill:#455a64"></path><path d="M96.77,249.71a.3.3,0,0,1-.29-.3v-10a.3.3,0,0,1,.59,0v10A.3.3,0,0,1,96.77,249.71Z" style="fill:#455a64"></path><path d="M95.92,241.72a.25.25,0,0,1-.12,0,.3.3,0,0,1-.15-.39l1-2.4,1.16,1.34a.28.28,0,0,1,0,.41.29.29,0,0,1-.41,0l-.55-.64-.67,1.56A.29.29,0,0,1,95.92,241.72Z" style="fill:#455a64"></path><path d="M99.48,248.16a.29.29,0,0,1-.29-.29v-10a.29.29,0,0,1,.29-.3.3.3,0,0,1,.3.3v10A.3.3,0,0,1,99.48,248.16Z" style="fill:#455a64"></path><path d="M98.63,240.18l-.12,0a.28.28,0,0,1-.15-.38l1-2.41,1.16,1.34a.29.29,0,1,1-.44.39l-.55-.64L98.89,240A.28.28,0,0,1,98.63,240.18Z" style="fill:#455a64"></path><polygon points="70.4 268.65 28.86 244.67 28.86 196.13 70.4 220.11 70.4 268.65" style="fill:#6699CC"></polygon><g style="opacity:0.30000000000000004"><polygon points="70.4 268.65 28.86 244.67 28.86 196.13 70.4 220.11 70.4 268.65" style="fill:#fff"></polygon></g><polygon points="46.18 206.12 90.3 180.63 97.22 184.63 53.09 210.12 46.18 206.12" style="fill:#455a64"></polygon><polygon points="46.18 206.12 46.18 214.12 47.14 213.56 48.43 215.42 49.23 214.74 50.65 216.7 51.55 215.98 53.09 218.12 53.09 210.12 46.18 206.12" style="fill:#37474f"></polygon></g><g id="freepik--box--inject-4"><polygon points="103.41 164.5 68.28 144.22 31 165.79 66.13 186.08 103.41 164.5" style="fill:#6699CC"></polygon><g style="opacity:0.8"><polygon points="103.41 164.5 68.28 144.22 31 165.79 66.13 186.08 103.41 164.5" style="fill:#fff"></polygon></g><polygon points="66.13 213.12 103.41 191.54 103.41 164.5 66.13 186.07 66.13 213.12" style="fill:#6699CC"></polygon><g style="opacity:0.6000000000000001"><polygon points="66.13 213.12 103.41 191.54 103.41 164.5 66.13 186.07 66.13 213.12" style="fill:#fff"></polygon></g><path d="M70.18,203.89a1,1,0,0,1-.49-.12,1.49,1.49,0,0,1-.6-1.34v-3.94h0v-.3l.2,0,3.09-1.81v4.4a3.55,3.55,0,0,1-1.52,2.87A1.32,1.32,0,0,1,70.18,203.89Zm-.59-5.1v3.64a1,1,0,0,0,.35.91.67.67,0,0,0,.67-.08,3.12,3.12,0,0,0,1.27-2.44v-.33H70.74L70.52,199ZM71.17,200h.71v-2.72L70,198.36l.91.17Z" style="fill:#455a64"></path><path d="M70.74,207a.25.25,0,0,1-.25-.24v-3.31a.25.25,0,1,1,.49,0v3.31A.24.24,0,0,1,70.74,207Z" style="fill:#455a64"></path><path d="M69.3,207.86a.25.25,0,0,1-.22-.12.27.27,0,0,1,.09-.34l2.88-1.66a.25.25,0,0,1,.25.43l-2.88,1.66Z" style="fill:#455a64"></path><path d="M79.54,202.17a.6.6,0,0,1-.27-.07.66.66,0,0,1-.3-.6v-.68a.25.25,0,0,1,.5,0v.68c0,.1,0,.16,0,.17s.07,0,.16,0a1.43,1.43,0,0,0,.46-1.11v-4.4a.25.25,0,1,1,.49,0v4.4a1.89,1.89,0,0,1-.7,1.54A.74.74,0,0,1,79.54,202.17Z" style="fill:#455a64"></path><path d="M76.93,198.32v-.43a7,7,0,0,1,3.17-5.48,2.09,2.09,0,0,1,3.41,2v.14Zm4.65-5.87a2.47,2.47,0,0,0-1.23.39,6.53,6.53,0,0,0-2.9,4.61L83,194.24a1.84,1.84,0,0,0-.77-1.62A1.36,1.36,0,0,0,81.58,192.45Z" style="fill:#455a64"></path><path d="M88.43,197.1a.25.25,0,0,1-.25-.25v-8.42a.25.25,0,0,1,.5,0v8.42A.25.25,0,0,1,88.43,197.1Z" style="fill:#455a64"></path><path d="M87.71,190.35l-.1,0a.25.25,0,0,1-.13-.33l.88-2,1,1.13a.25.25,0,0,1,0,.35.24.24,0,0,1-.35,0l-.47-.53-.57,1.31A.25.25,0,0,1,87.71,190.35Z" style="fill:#455a64"></path><path d="M90.72,195.79a.25.25,0,0,1-.25-.25v-8.42a.25.25,0,0,1,.5,0v8.42A.25.25,0,0,1,90.72,195.79Z" style="fill:#455a64"></path><path d="M90,189l-.1,0a.25.25,0,0,1-.13-.33l.88-2,1,1.13a.25.25,0,0,1-.37.33l-.47-.54-.57,1.31A.23.23,0,0,1,90,189Z" style="fill:#455a64"></path><polygon points="66.13 213.12 31 192.84 31 165.79 66.13 186.08 66.13 213.12" style="fill:#6699CC"></polygon><g style="opacity:0.30000000000000004"><polygon points="66.13 213.12 31 192.84 31 165.79 66.13 186.08 66.13 213.12" style="fill:#fff"></polygon></g><polygon points="45.65 174.25 82.96 152.69 88.81 156.07 51.49 177.63 45.65 174.25" style="fill:#455a64"></polygon><polygon points="45.65 174.25 45.65 181 46.46 180.53 47.55 182.11 48.23 181.53 49.43 183.19 50.19 182.58 51.49 184.39 51.49 177.63 45.65 174.25" style="fill:#37474f"></polygon></g><g id="freepik--box--inject-4"><polygon points="58.95 242.3 36.19 229.16 12.05 243.14 34.8 256.28 58.95 242.3" style="fill:#6699CC"></polygon><g style="opacity:0.8"><polygon points="58.95 242.3 36.19 229.16 12.05 243.14 34.8 256.28 58.95 242.3" style="fill:#fff"></polygon></g><polygon points="34.8 289.25 58.95 275.27 58.95 242.3 34.8 256.28 34.8 289.25" style="fill:#6699CC"></polygon><g style="opacity:0.6000000000000001"><polygon points="34.8 289.25 58.95 275.27 58.95 242.3 34.8 256.28 34.8 289.25" style="fill:#fff"></polygon></g><path d="M37.42,283.28a.59.59,0,0,1-.31-.09.94.94,0,0,1-.39-.86v-2.55h0v-.19l.13,0,2-1.18v2.85a2.27,2.27,0,0,1-1,1.86A.87.87,0,0,1,37.42,283.28ZM37,280v2.36c0,.29.08.5.23.58a.43.43,0,0,0,.43,0,2,2,0,0,0,.83-1.59v-.21h-.74l-.15-1Zm1,.78h.46V279l-1.19.7.59.11Z" style="fill:#455a64"></path><path d="M37.78,285.31a.16.16,0,0,1-.16-.16V283a.16.16,0,0,1,.16-.16.16.16,0,0,1,.16.16v2.14A.16.16,0,0,1,37.78,285.31Z" style="fill:#455a64"></path><path d="M36.85,285.85a.17.17,0,0,1-.14-.08.17.17,0,0,1,.06-.22l1.87-1.08a.15.15,0,0,1,.21.06.16.16,0,0,1-.05.22l-1.87,1.07A.11.11,0,0,1,36.85,285.85Z" style="fill:#455a64"></path><path d="M43.49,282.16a.41.41,0,0,1-.18-.05.42.42,0,0,1-.19-.38v-.44a.16.16,0,1,1,.32,0v.44c0,.06,0,.1,0,.1s.05,0,.11,0a1,1,0,0,0,.3-.73v-2.85a.16.16,0,0,1,.16-.16.16.16,0,0,1,.16.16v2.85a1.21,1.21,0,0,1-.46,1A.49.49,0,0,1,43.49,282.16Z" style="fill:#455a64"></path><path d="M41.8,279.67v-.28a4.56,4.56,0,0,1,2.05-3.56,1.36,1.36,0,0,1,2.21,1.28v.09Zm3-3.81a1.71,1.71,0,0,0-.8.25,4.22,4.22,0,0,0-1.87,3l3.6-2.08a1.19,1.19,0,0,0-.5-1A.86.86,0,0,0,44.81,275.86Z" style="fill:#455a64"></path><path d="M49.25,278.87a.16.16,0,0,1-.16-.16v-5.45a.16.16,0,1,1,.32,0v5.45A.16.16,0,0,1,49.25,278.87Z" style="fill:#455a64"></path><path d="M48.78,274.5h-.07a.17.17,0,0,1-.08-.21L49.2,273l.64.73a.16.16,0,0,1,0,.23.15.15,0,0,1-.22,0l-.31-.35-.36.85A.18.18,0,0,1,48.78,274.5Z" style="fill:#455a64"></path><path d="M50.73,278a.16.16,0,0,1-.16-.16v-5.46a.16.16,0,1,1,.32,0v5.46A.16.16,0,0,1,50.73,278Z" style="fill:#455a64"></path><path d="M50.26,273.65H50.2a.17.17,0,0,1-.09-.21l.57-1.32.64.74a.16.16,0,0,1,0,.22.17.17,0,0,1-.23,0l-.3-.35-.37.85A.16.16,0,0,1,50.26,273.65Z" style="fill:#455a64"></path><polygon points="34.8 289.25 12.05 276.11 12.05 243.14 34.8 256.28 34.8 289.25" style="fill:#6699CC"></polygon><g style="opacity:0.30000000000000004"><polygon points="34.8 289.25 12.05 276.11 12.05 243.14 34.8 256.28 34.8 289.25" style="fill:#fff"></polygon></g><polygon points="21.53 248.62 45.7 234.65 49.49 236.84 25.32 250.81 21.53 248.62" style="fill:#455a64"></polygon><polygon points="21.53 248.62 21.53 252.99 22.06 252.69 22.77 253.71 23.21 253.33 23.98 254.41 24.48 254.01 25.32 255.18 25.32 250.81 21.53 248.62" style="fill:#37474f"></polygon></g></g></g><g id="freepik--Clipboard--inject-4"><g id="freepik--paper-clip--inject-4"><g id="freepik--Board--inject-4"><g id="freepik--Window--inject-4"><path d="M464.64,363.69,292.58,463.15a7.13,7.13,0,0,1-6.44,0L33.74,317.42a7,7,0,0,1-3.2-5.57v-.76a7.16,7.16,0,0,1,3.23-5.57l172.17-99.4a7.16,7.16,0,0,1,6.44,0L464.67,351.78a7.12,7.12,0,0,1,3.21,5.58v.75A7.15,7.15,0,0,1,464.64,363.69Z" style="fill:#6699CC"></path><path d="M464.64,363.69,292.58,463.15a7.13,7.13,0,0,1-6.44,0L33.74,317.42a7,7,0,0,1-3.2-5.57v-.76a7.16,7.16,0,0,1,3.23-5.57l172.17-99.4a7.16,7.16,0,0,1,6.44,0L464.67,351.78a7.12,7.12,0,0,1,3.21,5.58v.75A7.15,7.15,0,0,1,464.64,363.69Z" style="opacity:0.45"></path><path d="M212.18,206c-2.45-1.42-5-.6-7.46.83L35,304.82c-2.45,1.41-2.46,3.72,0,5.14l250,144.3h0a8.87,8.87,0,0,0,8.86,0l169.74-98a3,3,0,0,0,0-5.14h0Z" style="fill:#6699CC"></path><path d="M212.18,206c-2.45-1.42-5-.6-7.46.83L35,304.82c-2.45,1.41-2.46,3.72,0,5.14l250,144.3h0a8.87,8.87,0,0,0,8.86,0l169.74-98a3,3,0,0,0,0-5.14h0Z" style="opacity:0.30000000000000004"></path><path d="M464.67,351.78l-1.1-.63a3,3,0,0,1,0,5.14l-169.75,98a8.6,8.6,0,0,1-4.42,1.18h-.11v8.48a6.67,6.67,0,0,0,3.29-.78l172.06-99.45a7.16,7.16,0,0,0,3.23-5.57v-.76A7.08,7.08,0,0,0,464.67,351.78Z" style="fill:#6699CC"></path><path d="M464.67,351.78l-1.1-.63a3,3,0,0,1,0,5.14l-169.75,98a8.6,8.6,0,0,1-4.42,1.18h-.11v8.48a6.67,6.67,0,0,0,3.29-.78l172.06-99.45a7.16,7.16,0,0,0,3.23-5.57v-.76A7.08,7.08,0,0,0,464.67,351.78Z" style="opacity:0.2"></path></g></g><path id="freepik--shadow--inject-4" d="M227.22,219.35c-2.53-1.46-5.16-.62-7.69.85L59.14,312.81c-2.53,1.45-2.54,3.83,0,5.29L284.62,448.28h0a9.13,9.13,0,0,0,9.13,0l160.44-92.59a3.06,3.06,0,0,0,0-5.3l-2.95-1.7Z" style="opacity:0.25"></path><g id="freepik--Papet--inject-4"><path d="M290.52,446.94l159.8-92.26a3,3,0,0,0,1.37-2.37v-1.78a3,3,0,0,0-1.36-2.37L222.79,216.79a3,3,0,0,0-2.74,0L60.24,309.05a3,3,0,0,0-1.36,2.37v1.79a3,3,0,0,0,1.36,2.37L287.78,446.94A3,3,0,0,0,290.52,446.94Z" style="fill:#f5f5f5"></path><path d="M60,309.26a3.23,3.23,0,0,0-.37.37l-.16.21a4,4,0,0,0-.39.74,2.39,2.39,0,0,0-.13.51c0,.11,0,.23,0,.34v1.77a3,3,0,0,0,1.37,2.37L287.77,446.94a2.72,2.72,0,0,0,1.37.32v-4.93a2.86,2.86,0,0,1-1.37-.33L60.24,310.63C59.6,310.26,59.5,309.69,60,309.26Z" style="fill:#e0e0e0"></path><path d="M450.66,348.41c.4.42.29,1-.33,1.33L290.52,442a2.67,2.67,0,0,1-1.37.33v4.94a2.8,2.8,0,0,0,1.37-.33l159.81-92.27a3,3,0,0,0,1.36-2.36v-1.78A3,3,0,0,0,450.66,348.41Z" style="fill:#f0f0f0"></path><path d="M271.88,245.14l-49.09-28.35a3,3,0,0,0-2.74,0L60.24,309.05a3,3,0,0,0-1.36,2.37v1.79a3,3,0,0,0,1.36,2.37l44.81,25.87Z" style="fill:#6699CC"></path><path d="M271.88,245.14l-49.09-28.35a3,3,0,0,0-2.74,0L60.24,309.05a3,3,0,0,0-1.36,2.37v1.79a3,3,0,0,0,1.36,2.37l44.81,25.87Z" style="fill:#fff;opacity:0.6000000000000001"></path><path d="M109.33,339,60.24,310.63c-.64-.37-.74-.94-.29-1.37a3.23,3.23,0,0,0-.37.37l-.16.21a4,4,0,0,0-.39.74,2.39,2.39,0,0,0-.13.51c0,.11,0,.23,0,.34v1.77a3,3,0,0,0,1.37,2.37l49.09,28.35Z" style="fill:#6699CC"></path></g><g id="freepik--Text--inject-4"><path d="M110.81,324.89l-12.22-7.05c-.27-.16-.41-.31-.41-.45s.14-.29.41-.45l3.35-1.93a8.63,8.63,0,0,1,3.59-1.06,7.88,7.88,0,0,1,4.54,1.27c1.14.66,1.79,1.3,2,1.92a1.79,1.79,0,0,1-.24,1.61,3.86,3.86,0,0,1-1.17,1.05l-1.33.77,4.49,2.6c.42.24.24.58-.54,1l-.66.38C111.82,325,111.22,325.13,110.81,324.89Zm-3-6.34a.66.66,0,0,0,.39-.68c0-.27-.38-.6-1-1a3.72,3.72,0,0,0-1.66-.58,2.11,2.11,0,0,0-1.15.23l-1,.6,3.45,2Z" style="fill:#fff"></path><path d="M120.14,319.51l-12.22-7.06c-.27-.15-.41-.3-.41-.44s.14-.29.41-.45l3.24-1.87a8.41,8.41,0,0,1,3.75-1.15,7.13,7.13,0,0,1,4,1.07q2.28,1.31,1.44,3l.08,0a5.71,5.71,0,0,1,1.55,0,9.6,9.6,0,0,1,1.68.37l4.87,1.49.3.1c.34.2.12.53-.68,1l-.68.39a2.15,2.15,0,0,1-1.69.37l-4.71-1.54a3.56,3.56,0,0,0-1-.11,2.14,2.14,0,0,0-.88.3l-.47.27,4.38,2.53c.42.24.24.59-.54,1l-.66.38C121.15,319.64,120.55,319.75,120.14,319.51ZM117,313a.52.52,0,0,0,.29-.66c-.08-.28-.39-.58-.94-.89a3.42,3.42,0,0,0-1.49-.52,2.05,2.05,0,0,0-1.16.23l-1,.6,3.24,1.87Z" style="fill:#fff"></path><path d="M123.57,310.36q-6.94-4-1.86-6.94a9.22,9.22,0,0,1,5.46-1.21,15.88,15.88,0,0,1,6.54,2.29q3.57,2.07,4,3.78c.26,1.15-.43,2.2-2.09,3.16Q130.52,314.37,123.57,310.36Zm10.24-1.28c0-.31-.21-.69-.71-1.14a14.66,14.66,0,0,0-2.45-1.67,19.73,19.73,0,0,0-2.86-1.4,5.38,5.38,0,0,0-2-.41,3.07,3.07,0,0,0-1.51.43c-.47.26-.72.56-.75.87s.2.71.69,1.16a14,14,0,0,0,2.42,1.66,18.38,18.38,0,0,0,2.88,1.4,5.55,5.55,0,0,0,2,.41,3.19,3.19,0,0,0,1.52-.43C133.54,309.69,133.78,309.4,133.81,309.08Z" style="fill:#fff"></path><path d="M142.33,307.15a1.52,1.52,0,0,1-.76-.24l-12-6.94c-.27-.16-.41-.31-.41-.44s.11-.28.35-.42l3.69-2.13a8.81,8.81,0,0,1,5.4-1.17,16,16,0,0,1,6.29,2.25q3.42,2,3.91,3.64t-2,3.12l-3.69,2.12A1.28,1.28,0,0,1,142.33,307.15Zm1.78-3.74c.68-.4.86-.87.51-1.41a8.89,8.89,0,0,0-2.84-2.15,14,14,0,0,0-3.73-1.65,3.43,3.43,0,0,0-2.44.3l-1.24.72,8.5,4.9Z" style="fill:#fff"></path><path d="M153.73,299.71a7.86,7.86,0,0,1-4.29-1l-9-5.21c-.41-.24-.24-.57.51-1l.77-.44c.75-.44,1.34-.53,1.75-.29l8.82,5.09a3.61,3.61,0,0,0,1.74.49,3.15,3.15,0,0,0,1.7-.41c.49-.28.72-.61.69-1a1.41,1.41,0,0,0-.83-1l-8.82-5.1c-.42-.24-.25-.57.5-1l.76-.43c.75-.43,1.33-.53,1.74-.29l9,5.2c1.31.76,1.91,1.58,1.82,2.47s-.88,1.76-2.34,2.61A9.73,9.73,0,0,1,153.73,299.71Z" style="fill:#fff"></path><path d="M164.16,293a16.19,16.19,0,0,1-6.53-2.35q-3.49-2-3.91-3.74c-.28-1.16.48-2.25,2.28-3.29a10.11,10.11,0,0,1,1.9-.85,1.69,1.69,0,0,1,1.43.13,3,3,0,0,1,1.06.92c.21.32.15.53-.2.63a6.56,6.56,0,0,0-1.44.6c-.77.45-1,1-.67,1.62a6.94,6.94,0,0,0,2.67,2.2,12.24,12.24,0,0,0,3.82,1.55,4.19,4.19,0,0,0,2.91-.44,3.07,3.07,0,0,0,.57-.39,6.33,6.33,0,0,0,.5-.47.41.41,0,0,1,.15-.11,1.45,1.45,0,0,1,1.07-.06,5.6,5.6,0,0,1,1.47.63.87.87,0,0,1,.38.35c.06.12,0,.27-.13.44a4.59,4.59,0,0,1-.66.62,7.54,7.54,0,0,1-1,.7A9.3,9.3,0,0,1,164.16,293Z" style="fill:#fff"></path><path d="M174.93,287.88l-10.46-6-2.15,1.24a1,1,0,0,1-.66.11,2.49,2.49,0,0,1-.87-.34l-.6-.35a1.39,1.39,0,0,1-.6-.5c-.07-.15,0-.27.19-.38l7.37-4.26a1,1,0,0,1,.68-.12,2.42,2.42,0,0,1,.87.34l.6.35c.34.2.54.36.6.51s0,.27-.21.39l-2.17,1.25,10.45,6c.42.24.25.57-.5,1l-.8.46C175.92,288,175.34,288.11,174.93,287.88Z" style="fill:#fff"></path><path d="M196.83,279.34l-.45.07q-3.57.51-9,1.61a10.65,10.65,0,0,1-4.38-.1,17.51,17.51,0,0,1-4.91-2q-6.95-4-1.86-7a9.29,9.29,0,0,1,5.46-1.2,15.74,15.74,0,0,1,6.54,2.29c3.24,1.87,4.5,3.55,3.81,5.06l.07.05,4-.79a.76.76,0,0,1,.58.07,1.83,1.83,0,0,1,.4.5,2.47,2.47,0,0,1,.32.76.46.46,0,0,1-.2.54A1.67,1.67,0,0,1,196.83,279.34Zm-8.51-1.69c0-.32-.22-.71-.73-1.16a14.83,14.83,0,0,0-2.46-1.67,19.94,19.94,0,0,0-2.86-1.41,5.82,5.82,0,0,0-2-.41,3.18,3.18,0,0,0-1.51.43c-.47.27-.72.56-.75.88s.2.7.69,1.16a14.64,14.64,0,0,0,2.42,1.66,19.08,19.08,0,0,0,2.9,1.41,5.56,5.56,0,0,0,2,.41,3.09,3.09,0,0,0,1.53-.43C188.06,278.26,188.3,278,188.32,277.65Z" style="fill:#fff"></path><path d="M197,274.72a7.86,7.86,0,0,1-4.29-1l-9-5.21c-.41-.24-.24-.58.51-1L185,267c.75-.43,1.34-.53,1.75-.29l8.82,5.1a3.6,3.6,0,0,0,1.74.48,3.15,3.15,0,0,0,1.7-.4c.49-.29.72-.61.69-1a1.42,1.42,0,0,0-.83-1L190,264.82c-.42-.24-.25-.58.5-1l.76-.44c.75-.43,1.33-.52,1.74-.29l9,5.21c1.31.75,1.91,1.58,1.81,2.47s-.87,1.76-2.33,2.6A9.63,9.63,0,0,1,197,274.72Z" style="fill:#fff"></path><path d="M206.68,269.77a1.09,1.09,0,0,1-.29-.24L197,260.69c-.27-.26-.06-.6.64-1l1.26-.73a2.19,2.19,0,0,1,1.74-.38L216,264l.38.18c.29.16.15.41-.4.73l-1,.59a1.86,1.86,0,0,1-1.44.36l-2.87-1.08-3,1.71,1.85,1.66c.22.19,0,.44-.51.76l-1,.59C207.41,269.84,207,269.93,206.68,269.77Zm1.28-6.18-5-1.87c-.55-.22-1.12-.46-1.7-.72l-.1.06c.45.33.86.66,1.24,1l3.26,2.87Z" style="fill:#fff"></path><path d="M217.92,263.52a1.66,1.66,0,0,1-.77-.25l-12.22-7c-.41-.24-.24-.58.51-1l.77-.45c.75-.43,1.33-.53,1.75-.29l10.45,6,2.89-1.67a1,1,0,0,1,.68-.12,2.49,2.49,0,0,1,.87.34l.6.35a1.51,1.51,0,0,1,.61.5c.06.15,0,.28-.22.4l-5.2,3A1.42,1.42,0,0,1,217.92,263.52Z" style="fill:#fff"></path><path d="M225.16,258.87l-12.41-7.16q-.65-.37.48-1l.82-.47c.73-.43,1.32-.52,1.74-.27l12.42,7.17c.42.24.27.58-.47,1l-.81.47C226.18,259,225.59,259.12,225.16,258.87Z" style="fill:#fff"></path><path d="M232.1,254.86l-10.45-6-2.15,1.24a1,1,0,0,1-.66.11,2.53,2.53,0,0,1-.88-.34l-.6-.35a1.54,1.54,0,0,1-.6-.5c-.06-.15,0-.27.2-.39l7.37-4.25a1,1,0,0,1,.68-.12,2.57,2.57,0,0,1,.87.34l.6.35a1.46,1.46,0,0,1,.6.51q.09.21-.21.39l-2.18,1.25,10.46,6c.41.24.24.57-.51,1l-.79.46C233.1,255,232.52,255.1,232.1,254.86Z" style="fill:#fff"></path><path d="M241.22,249.6l-5.28-3-9.87-2.25a2.94,2.94,0,0,1-.66-.18c-.11-.07-.11-.18,0-.34a2.89,2.89,0,0,1,.76-.56l1-.57a2,2,0,0,1,1.43-.4l6.29,1.88-3.28-3.62c-.1-.1-.09-.22,0-.36a3.36,3.36,0,0,1,.66-.47l.81-.47c.82-.47,1.35-.63,1.61-.48a1.46,1.46,0,0,1,.35.36l4,5.73,5.21,3c.2.13.26.28.18.44a1.75,1.75,0,0,1-.7.58l-.76.44C242.22,249.74,241.63,249.84,241.22,249.6Z" style="fill:#fff"></path></g><g id="freepik--Signatures--inject-4"><path d="M405,345.33l-30.14,17.41a.61.61,0,0,1-.56,0c-.15-.09-.15-.24,0-.32L404.43,345a.61.61,0,0,1,.56,0A.17.17,0,0,1,405,345.33Z" style="fill:#e0e0e0"></path><path d="M311.06,399.56l-33.82,19.53a.61.61,0,0,1-.56,0,.17.17,0,0,1,0-.32l33.82-19.53a.61.61,0,0,1,.56,0C311.21,399.33,311.21,399.48,311.06,399.56Z" style="fill:#e0e0e0"></path><path d="M273.64,414.36c1.66.08,3.9,0,4.72-1.76a3.9,3.9,0,0,0,0-2.85,2.36,2.36,0,0,0-1.4-1.64c-.92-.32-1.2.44-1.14,1.25a6.86,6.86,0,0,0,.86,2.75,3.24,3.24,0,0,0,4.24,1.43,2.11,2.11,0,0,0,1.17-2,1.84,1.84,0,0,0-1.32-1.88.23.23,0,0,0-.3.17,3,3,0,0,0,.62,2.18,2.63,2.63,0,0,0,1.67.89c.61,0,.81-.74.84-1.23a5.11,5.11,0,0,0-.68-2.34c-.09-.2-.5-.25-.39.05a2.39,2.39,0,0,0,.83,1.13c.34.26.78.62,1.2.33.91-.64.14-1.9-.32-2.55l-.17.28a5.21,5.21,0,0,0,2,1.17c.08,0,.13,0,.14-.11a3.3,3.3,0,0,0-.45-1.81l-.18.2a2.86,2.86,0,0,0,2.66,1.14c1.18-.28,1-1.61,1-2.55a13,13,0,0,0-3.07-7.31c-.12-.14-.31-.08-.3.11a16.74,16.74,0,0,0,1.12,4.4,34.65,34.65,0,0,0,2,4.44,11.45,11.45,0,0,0,1.87,2.79.88.88,0,0,0,.66.36c.65,0,.8-.79.73-1.3a13.9,13.9,0,0,0-1.16-3.09c-.57-1.39-1.16-2.77-1.77-4.15l-.31.1a14.57,14.57,0,0,0,3.34,3.91c.16.14.27,0,.24-.19-.22-.93-.43-1.86-.65-2.79l-.25.15,2,1.46a.16.16,0,0,0,.25-.05,3.34,3.34,0,0,0,0-2.25l-.19.24a4.91,4.91,0,0,1,1.49.77c.14.11.27,0,.25-.16s0-.44-.05-.66l-.39,0c.09.67.89.89,1.46.95a2.8,2.8,0,0,0,2.41-.75,5.15,5.15,0,0,0,1-2.93,5.81,5.81,0,0,0-.44-3.27,1.65,1.65,0,0,0-3.06,1.13,5.87,5.87,0,0,0,1.13,2.74,4.75,4.75,0,0,0,2.39,2,1.62,1.62,0,0,0,1.95-1.45,4.67,4.67,0,0,0-1-3.54c-.11-.14-.45-.15-.4.09a2.73,2.73,0,0,0,2.63,2c.71,0,2.54-.3,2.14-1.39-.1-.28-.59-.31-.46,0,.26.72-1.54.9-1.9.87a1.94,1.94,0,0,1-1.93-1.41l-.44,0a4.49,4.49,0,0,1,.91,2.41c0,.7-.11,1.57-.87,1.85s-1.61-.45-2.15-1a5.59,5.59,0,0,1-1.33-2.13,2.49,2.49,0,0,1-.08-1.91,1.26,1.26,0,0,1,1.84-.41,3.58,3.58,0,0,1,.64,2.44,9.14,9.14,0,0,1-.37,2.55,2.16,2.16,0,0,1-1.72,1.59c-.38.07-1.85.16-1.93-.43,0-.25-.42-.36-.39,0l.06.66.25-.17a5.29,5.29,0,0,0-1.58-.82c-.17,0-.24.11-.19.25a2.88,2.88,0,0,1,0,1.92l.24-.05-2-1.45a.15.15,0,0,0-.25.15c.23,1,.46,1.93.68,2.89l.24-.2a13.78,13.78,0,0,1-3.2-3.73c-.11-.19-.41-.14-.31.11.91,2.06,1.81,4.14,2.63,6.23a4.09,4.09,0,0,1,.29,1c0,.31-.06.9-.51.88-.21,0-.41-.28-.53-.41a14.72,14.72,0,0,1-1.73-2.74,34.11,34.11,0,0,1-1.79-4,15.76,15.76,0,0,1-1.1-4.37l-.29.11a13.13,13.13,0,0,1,2.84,6,9.88,9.88,0,0,1,.13,1.44,2.23,2.23,0,0,1-.21,1.4,1.52,1.52,0,0,1-1.66.26,3.09,3.09,0,0,1-1.3-.93c-.14-.16-.25.07-.17.2a2.71,2.71,0,0,1,.39,1.54l.14-.11a4.56,4.56,0,0,1-1.89-1.12c-.15-.17-.37,0-.24.19a2.76,2.76,0,0,1,.57,1.38.51.51,0,0,1-.82.45,1.72,1.72,0,0,1-.8-.92l-.4.05a5.41,5.41,0,0,1,.56,1.61c.05.46,0,1.37-.66,1.3a1.88,1.88,0,0,1-1.17-.8A2.65,2.65,0,0,1,281,410l-.29.18a1.54,1.54,0,0,1,.49,2.29,2.3,2.3,0,0,1-2.2.8,2.53,2.53,0,0,1-1.92-1.49,5.08,5.08,0,0,1-.67-2.71c.05-.4.2-.59.6-.38a1.35,1.35,0,0,1,.4.35,3.31,3.31,0,0,1,.5,1.21,3,3,0,0,1-.13,2.43c-.89,1.37-2.7,1.46-4.16,1.44-.11,0-.09.23,0,.24Z" style="fill:#455a64"></path><path d="M370.87,356.37a2.61,2.61,0,0,1-.2-2.37,3.39,3.39,0,0,1,.83-1.16c.65-.61,1.05.32,1.32.84a18.84,18.84,0,0,1,1.86,5.52l.43,0a5.68,5.68,0,0,1-.21-2.35,2.22,2.22,0,0,1,.5-1.14c.4-.38.92.4,1.16.73.1.14.46.23.41-.06a2.79,2.79,0,0,1,.18-1.59l.12-.27c.12-.25.25-.25.4,0a1.8,1.8,0,0,1,.45.67l.43-.06c-.1-.25-.33-1.07.07-1.13s.42.26.56.47a1.74,1.74,0,0,0,.79.73c.47.15.64-.52.77-.85a8.67,8.67,0,0,0,.54-2.46,6.1,6.1,0,0,0-.17-3.06,1.06,1.06,0,0,0-.66-.6c-.41-.12-.65.06-.93.36a3.55,3.55,0,0,0-.5,2.5A6.67,6.67,0,0,0,380,354a2.26,2.26,0,0,0,1.79,1.36c1.07,0,1.21-1.48,1.36-2.26a9.58,9.58,0,0,0-.1-3.81c0-.16-.42-.42-.49-.15a3.28,3.28,0,0,0,.86,3.56c.08.07.27.14.35,0a3.48,3.48,0,0,0,.54-2.88l-.43.09,1.44,1.64c.09.11.3.13.36,0a1.78,1.78,0,0,0-.07-1.76l-.33.23a6.28,6.28,0,0,0,1.27,1c.43.18.76,0,1.1-.29a8.19,8.19,0,0,0,2-2.18,19.32,19.32,0,0,0,3.1-6.85,3.06,3.06,0,0,0-.43-2.75,1.66,1.66,0,0,0-2.22-.09,11.16,11.16,0,0,0-2.48,2.42,10.74,10.74,0,0,0-1.54,2.61c-.66,1.64-1.22,4.32.22,5.71s4,.65,5.41-.53a10.1,10.1,0,0,0,3.36-5.35,8,8,0,0,0,.21-1.53,3.45,3.45,0,0,0-.11-1.32,1.27,1.27,0,0,0-1.87-.46,4.35,4.35,0,0,0-1.65,2.9,3.72,3.72,0,0,0,.61,2.79c1.51,2,4.69,1.37,6.69.65.17-.07,0-.41-.17-.37-1.72.37-4.14,1.13-5.69-.09s-1-3.32-.12-4.61a2.3,2.3,0,0,1,.87-.88c.67-.29.81.19.83.7a7.68,7.68,0,0,1-.3,2.43,10,10,0,0,1-2.75,4.38c-1.13,1.07-3.23,2.24-4.72,1.19s-.94-3.3-.51-4.67a10.8,10.8,0,0,1,2.56-4.12,5.14,5.14,0,0,1,2.16-1.66c1.28-.28,1.26,1.46,1.1,2.28a18.16,18.16,0,0,1-2.11,5.57,13.3,13.3,0,0,1-1.79,2.55,4.45,4.45,0,0,1-1.2,1,.68.68,0,0,1-.84-.15l-.72-.62c-.15-.13-.49-.08-.35.18a1.35,1.35,0,0,1,0,1.36l.41,0-1.38-1.61c-.12-.13-.51-.22-.43.09a3.09,3.09,0,0,1-.48,2.55l.35,0a2.71,2.71,0,0,1-.66-3l-.48-.15a8.83,8.83,0,0,1,0,4.11,4.31,4.31,0,0,1-.39,1.23c-.31.47-.93.25-1.27-.08a4.32,4.32,0,0,1-.74-1.19,5.9,5.9,0,0,1-.59-2.47,5.67,5.67,0,0,1,.1-1.09,1.53,1.53,0,0,1,.22-.63.59.59,0,0,1,.86-.08c.25.25.21,1.11.21,1.43s-.06.88-.1,1.31a8.48,8.48,0,0,1-.42,2.12,5.65,5.65,0,0,1-.23.57c0,.06-.09.26-.15.3s-.24-.14-.34-.27c-.31-.4-.63-1-1.23-1s-.48,1.31-.31,1.73c.1.26.55.26.43-.06s-.84-1.54-1.43-1.24c-.33.17-.47.74-.56,1.06a3.33,3.33,0,0,0-.05,1.37l.41-.05a3.19,3.19,0,0,0-1.22-1.17c-.5-.17-.84.43-1,.81a5,5,0,0,0,0,3.32c.06.21.48.31.43,0a18.43,18.43,0,0,0-1.11-3.83,19.57,19.57,0,0,0-.87-1.86,3,3,0,0,0-.86-1.27c-.81-.5-1.56.7-1.84,1.31a2.87,2.87,0,0,0,.3,2.89c.1.13.19,0,.13-.15Z" style="fill:#455a64"></path></g><path d="M315.5,361.67h0c2.12.29,4-.44,4.26-1.64h0c.3-1.5,3.15-2.18,5.56-1.32h0c1.91.68,4.22.4,5.17-.62h0c1.2-1.28,4.41-1.32,6.27-.08h0a6.15,6.15,0,0,0,5.46.48h0c1.95-.91,5.13-.3,6.22,1.18h0c.87,1.18,3.14,1.86,5.1,1.52h0c2.45-.43,5.23.75,5.42,2.29h0c.15,1.23,2,2.29,4.11,2.38h0c2.68.11,4.71,1.71,4,3.13h0c-.59,1.13.59,2.44,2.63,2.94h0c2.57.63,3.62,2.47,2,3.59h0c-1.25.89-.88,2.3.83,3.15h0c2.16,1.08,2.09,2.93-.13,3.62h0c-1.77.55-2.24,1.88-1.07,3h0c1.49,1.39.31,3-2.29,3.21h0c-2.07.14-3.33,1.24-2.84,2.46h0c.63,1.54-1.51,2.77-4.17,2.41h0c-2.12-.29-4,.44-4.27,1.64h0c-.3,1.5-3.14,2.18-5.55,1.32h0c-1.92-.68-4.23-.4-5.18.62h0c-1.19,1.28-4.4,1.32-6.26.08h0a6.2,6.2,0,0,0-5.47-.49h0c-1.94.91-5.13.31-6.22-1.17h0c-.86-1.18-3.14-1.86-5.09-1.52h0c-2.46.42-5.24-.75-5.42-2.29h0c-.15-1.23-2-2.29-4.11-2.38h0c-2.68-.11-4.71-1.71-4-3.13h0c.59-1.13-.58-2.44-2.63-2.94h0c-2.57-.63-3.61-2.47-2-3.59h0c1.26-.89.88-2.3-.83-3.16h0c-2.16-1.07-2.09-2.92.14-3.61h0c1.76-.55,2.24-1.88,1.06-3h0c-1.48-1.39-.3-3,2.3-3.21h0c2.06-.14,3.33-1.24,2.83-2.46h0C310.69,362.54,312.83,361.31,315.5,361.67Z" style="fill:#6699CC"></path><path d="M315.5,361.67h0c2.12.29,4-.44,4.26-1.64h0c.3-1.5,3.15-2.18,5.56-1.32h0c1.91.68,4.22.4,5.17-.62h0c1.2-1.28,4.41-1.32,6.27-.08h0a6.15,6.15,0,0,0,5.46.48h0c1.95-.91,5.13-.3,6.22,1.18h0c.87,1.18,3.14,1.86,5.1,1.52h0c2.45-.43,5.23.75,5.42,2.29h0c.15,1.23,2,2.29,4.11,2.38h0c2.68.11,4.71,1.71,4,3.13h0c-.59,1.13.59,2.44,2.63,2.94h0c2.57.63,3.62,2.47,2,3.59h0c-1.25.89-.88,2.3.83,3.15h0c2.16,1.08,2.09,2.93-.13,3.62h0c-1.77.55-2.24,1.88-1.07,3h0c1.49,1.39.31,3-2.29,3.21h0c-2.07.14-3.33,1.24-2.84,2.46h0c.63,1.54-1.51,2.77-4.17,2.41h0c-2.12-.29-4,.44-4.27,1.64h0c-.3,1.5-3.14,2.18-5.55,1.32h0c-1.92-.68-4.23-.4-5.18.62h0c-1.19,1.28-4.4,1.32-6.26.08h0a6.2,6.2,0,0,0-5.47-.49h0c-1.94.91-5.13.31-6.22-1.17h0c-.86-1.18-3.14-1.86-5.09-1.52h0c-2.46.42-5.24-.75-5.42-2.29h0c-.15-1.23-2-2.29-4.11-2.38h0c-2.68-.11-4.71-1.71-4-3.13h0c.59-1.13-.58-2.44-2.63-2.94h0c-2.57-.63-3.61-2.47-2-3.59h0c1.26-.89.88-2.3-.83-3.16h0c-2.16-1.07-2.09-2.92.14-3.61h0c1.76-.55,2.24-1.88,1.06-3h0c-1.48-1.39-.3-3,2.3-3.21h0c2.06-.14,3.33-1.24,2.83-2.46h0C310.69,362.54,312.83,361.31,315.5,361.67Z" style="fill:#fff;opacity:0.6000000000000001"></path><ellipse cx="338.77" cy="377.51" rx="16.57" ry="29.19" transform="translate(-74.18 672.06) rotate(-83.6)" style="fill:#6699CC"></ellipse><path d="M325.94,384.92c-8.08-4.67-8.89-11.77-1.81-15.86s19.38-3.62,27.46,1.05,8.9,11.77,1.81,15.86S334,389.59,325.94,384.92Z" style="fill:#fafafa"></path><path d="M354.53,386.62c-7.61,4.4-20.89,3.89-29.58-1.13s-9.57-12.68-1.95-17.08,20.89-3.89,29.58,1.13S362.15,382.22,354.53,386.62Zm-29.27-16.9c-6.53,3.76-5.78,10.33,1.67,14.63s18.82,4.73,25.35,1,5.77-10.33-1.68-14.63S331.79,366,325.26,369.72Z" style="fill:#6699CC"></path><g style="opacity:0.30000000000000004"><path d="M354.53,386.62c-7.61,4.4-20.89,3.89-29.58-1.13s-9.57-12.68-1.95-17.08,20.89-3.89,29.58,1.13S362.15,382.22,354.53,386.62Zm-29.27-16.9c-6.53,3.76-5.78,10.33,1.67,14.63s18.82,4.73,25.35,1,5.77-10.33-1.68-14.63S331.79,366,325.26,369.72Z"></path></g><path d="M344.69,391.52l.05.13.08.16a1.3,1.3,0,0,0,.08.17l.07.12a.79.79,0,0,0,.12.15.68.68,0,0,0,.19.11.66.66,0,0,0,.26.07,1.25,1.25,0,0,0,.34,0,1.14,1.14,0,0,0,.32-.06.54.54,0,0,0,.17-.08.21.21,0,0,0,.09-.1.29.29,0,0,0,0-.09.12.12,0,0,1,0-.09l.12,0,.76-.06a.16.16,0,0,1,.1,0s.06,0,.06.05a.37.37,0,0,1,0,.34.59.59,0,0,1-.25.3,1.72,1.72,0,0,1-.49.23,2.65,2.65,0,0,1-.68.13,4,4,0,0,1-.78,0,2.48,2.48,0,0,1-.65-.16,2,2,0,0,1-.5-.26,1.42,1.42,0,0,1-.31-.35l-.15-.3c-.05-.11-.1-.21-.14-.31a.58.58,0,0,1,.19-.7,1.38,1.38,0,0,1,.47-.25,2.62,2.62,0,0,1,.71-.14,3.65,3.65,0,0,1,.74,0,4.06,4.06,0,0,1,.66.13,2,2,0,0,1,.51.24.83.83,0,0,1,.3.32,0,0,0,0,1,0,.05s0,0-.08,0l-.76.07h-.14l-.1-.08-.11-.08-.16-.08-.24-.05h-.34a1.22,1.22,0,0,0-.32.06.5.5,0,0,0-.18.11.2.2,0,0,0-.06.14A.38.38,0,0,0,344.69,391.52Z" style="fill:#fafafa"></path><path d="M351.24,391.59a.3.3,0,0,1,.13,0,.19.19,0,0,1,.09,0l.27.35a.08.08,0,0,1,0,.08.19.19,0,0,1-.09,0l-2.58.5a.2.2,0,0,1-.13,0,.19.19,0,0,1-.09-.05l-1.65-2.14a.06.06,0,0,1,0-.07.13.13,0,0,1,.09-.05l2.54-.49a.25.25,0,0,1,.12,0,.15.15,0,0,1,.09.05l.28.35s0,0,0,.07a.11.11,0,0,1-.08,0l-1.68.33.27.35,1.56-.3a.3.3,0,0,1,.13,0,.19.19,0,0,1,.09,0l.27.35a.08.08,0,0,1,0,.08.19.19,0,0,1-.09,0l-1.56.3.29.37Z" style="fill:#fafafa"></path><path d="M351.86,389.21a4.08,4.08,0,0,1,.63-.15,2.83,2.83,0,0,1,.58,0,2.28,2.28,0,0,1,.53.13,1.6,1.6,0,0,1,.44.29.7.7,0,0,1,.27.43.48.48,0,0,1-.17.38l1.43.53.05,0s0,0,0,.06a.1.1,0,0,1-.06.05l-.67.21a.35.35,0,0,1-.17,0l-.13,0-1.28-.49-.46.15.74.66a.06.06,0,0,1,0,.07.1.1,0,0,1-.06,0l-.65.21a.25.25,0,0,1-.12,0,.28.28,0,0,1-.11-.05l-2.21-2s0,0,0-.07a.1.1,0,0,1,.07-.05Zm.48,1.11.56-.18a.57.57,0,0,0,.29-.16c.05-.06,0-.13-.07-.22a.44.44,0,0,0-.33-.13,1,1,0,0,0-.4.06l-.56.18Z" style="fill:#fafafa"></path><path d="M355.78,387.56a.22.22,0,0,1,.12,0,.21.21,0,0,1,.11,0l.44.29a.1.1,0,0,1,.05.07.06.06,0,0,1-.05.06l-.76.37,2.15,1.43a.08.08,0,0,1,0,.07.06.06,0,0,1-.05.06l-.56.27a.23.23,0,0,1-.12,0,.18.18,0,0,1-.11,0l-2.15-1.43-.76.36a.23.23,0,0,1-.12,0,.21.21,0,0,1-.11,0l-.45-.29a.09.09,0,0,1,0-.07s0-.05,0-.06Z" style="fill:#fafafa"></path><path d="M359.44,389.06l-.11,0a.21.21,0,0,1-.12,0l-3-1.64a.13.13,0,0,1-.06-.07.07.07,0,0,1,0-.06l.5-.31a.18.18,0,0,1,.11,0,.27.27,0,0,1,.12,0l3,1.64s.05,0,.05.07a0,0,0,0,1,0,.06Z" style="fill:#fafafa"></path><path d="M358.79,385.36a.13.13,0,0,1,.1,0,.25.25,0,0,1,.12,0l.54.24a.11.11,0,0,1,.07.06.06.06,0,0,1,0,.07l-1,.79.69.31.91-.74a.13.13,0,0,1,.1,0,.25.25,0,0,1,.12,0l.54.24a.11.11,0,0,1,.07.06.06.06,0,0,1,0,.07l-.91.74,1.1.49a.11.11,0,0,1,.07.06s0,0,0,.07l-.42.35a.24.24,0,0,1-.1,0l-.13,0-3.27-1.45a.12.12,0,0,1-.07-.07.07.07,0,0,1,0-.07Z" style="fill:#fafafa"></path><path d="M362.9,386.32a.13.13,0,0,1-.09,0,.25.25,0,0,1-.12,0l-3.5-1.24a.18.18,0,0,1-.08-.06s0-.05,0-.07l.35-.38a.13.13,0,0,1,.09,0,.28.28,0,0,1,.13,0l3.49,1.24.09.06a.06.06,0,0,1,0,.07Z" style="fill:#fafafa"></path><path d="M363.89,383.5s0,0,.08-.05h.13l.6.17a.19.19,0,0,1,.09.05.06.06,0,0,1,0,.07l-.93,1.48a.16.16,0,0,1-.08,0h-.13l-3.67-1c-.05,0-.08,0-.1-.06a.06.06,0,0,1,0-.07l.92-1.45a.12.12,0,0,1,.08-.05H361l.6.16a.2.2,0,0,1,.09.06,0,0,0,0,1,0,.07l-.6,1,.61.17.56-.89a.11.11,0,0,1,.09-.05h.12l.6.17a.19.19,0,0,1,.09,0s0,.05,0,.07l-.56.89.64.18Z" style="fill:#fafafa"></path><path d="M361.27,381.37a.83.83,0,0,1,.24-.4,1.48,1.48,0,0,1,.44-.27,2,2,0,0,1,.59-.13,3.25,3.25,0,0,1,.69,0l.23,0,.2,0,.2,0,.22,0a3.22,3.22,0,0,1,.64.2,1.83,1.83,0,0,1,.46.3.9.9,0,0,1,.25.38.66.66,0,0,1,0,.44l-.26.9a.1.1,0,0,1-.07.05.24.24,0,0,1-.12,0l-3.84-.65-.1-.05a.06.06,0,0,1,0-.07Zm1.76-.16c-.46-.06-.73.05-.82.34l-.1.34,2.26.38.11-.36c.08-.28-.11-.46-.56-.55l-.23,0-.22,0-.21,0Z" style="fill:#fafafa"></path><path d="M317.53,379.7a.06.06,0,0,1,0,.07.12.12,0,0,1-.11,0l-4.26.2a.32.32,0,0,1-.14,0,.11.11,0,0,1-.08-.07l-.48-1.25a.67.67,0,0,1-.05-.45.52.52,0,0,1,.21-.3,1,1,0,0,1,.38-.17,2.42,2.42,0,0,1,.47-.07,1.34,1.34,0,0,1,.35,0l.26.05.2.06.11.06a.76.76,0,0,1,.34-.24,2.38,2.38,0,0,1,.54-.08,3.25,3.25,0,0,1,.54,0,2.09,2.09,0,0,1,.52.13,1.36,1.36,0,0,1,.43.27.91.91,0,0,1,.28.41Zm-3.78-1.31a.47.47,0,0,0-.25.07.15.15,0,0,0,0,.19l.23.6.76,0-.24-.6a.29.29,0,0,0-.17-.17A.65.65,0,0,0,313.75,378.39Zm2.52.74-.25-.64a.35.35,0,0,0-.19-.19.63.63,0,0,0-.31-.05.4.4,0,0,0-.26.08.15.15,0,0,0,0,.19l.24.65Z" style="fill:#fafafa"></path><path d="M315.47,375.15a.08.08,0,0,1,0-.07l.13,0,.71.05a.25.25,0,0,1,.13,0,.09.09,0,0,1,.06.08l.09,1.84a.08.08,0,0,1-.05.07l-.12,0-4.38-.29a.33.33,0,0,1-.13,0,.1.1,0,0,1,0-.08l-.09-1.81s0-.05.05-.07a.22.22,0,0,1,.12,0l.72,0a.2.2,0,0,1,.13,0,.09.09,0,0,1,.06.08l.06,1.19.73.05-.06-1.11s0,0,.05-.07a.19.19,0,0,1,.13,0l.72,0,.13,0s.06.05.06.08l0,1.11.76.05Z" style="fill:#fafafa"></path><path d="M312.12,373a1,1,0,0,1,.25-.42,1.57,1.57,0,0,1,.42-.29,2.13,2.13,0,0,1,.49-.15,1.56,1.56,0,0,1,.48,0,.19.19,0,0,1,.09,0s0,.05,0,.07l-.14.49a.13.13,0,0,1-.05.07l-.1.06-.08,0-.11.05a.4.4,0,0,0-.12.1.35.35,0,0,0-.09.16.59.59,0,0,0,0,.13.51.51,0,0,0,0,.13.19.19,0,0,0,.08.1.34.34,0,0,0,.16.06.32.32,0,0,0,.17,0,.29.29,0,0,0,.16-.09,1.37,1.37,0,0,0,.18-.21l.22-.32a1.82,1.82,0,0,1,.29-.32,1.31,1.31,0,0,1,.36-.21,1.51,1.51,0,0,1,.45-.08,2.94,2.94,0,0,1,.56,0,2.19,2.19,0,0,1,.58.19,1.27,1.27,0,0,1,.39.33.89.89,0,0,1,.18.41,1,1,0,0,1,0,.48,1,1,0,0,1-.25.44,1.58,1.58,0,0,1-.42.31,2.4,2.4,0,0,1-.52.16,2.26,2.26,0,0,1-.52,0,.23.23,0,0,1-.1,0s0,0,0-.07l.14-.49a.13.13,0,0,1,.05-.07.19.19,0,0,1,.09-.05l.1,0,.14-.06a.72.72,0,0,0,.15-.11.32.32,0,0,0,.1-.18.67.67,0,0,0,0-.34.26.26,0,0,0-.24-.18.27.27,0,0,0-.18,0,.44.44,0,0,0-.17.12l-.18.23a2.69,2.69,0,0,1-.24.33,1.19,1.19,0,0,1-.65.48,2.21,2.21,0,0,1-1,0,2.34,2.34,0,0,1-.53-.17,1.71,1.71,0,0,1-.4-.29,1.09,1.09,0,0,1-.22-.39A.9.9,0,0,1,312.12,373Z" style="fill:#fafafa"></path><path d="M314.07,369.4a.15.15,0,0,1,.09,0,.33.33,0,0,1,.14,0l.68.19a.26.26,0,0,1,.1.07.08.08,0,0,1,0,.08l-.41.6,3.27.94a.2.2,0,0,1,.1.07.06.06,0,0,1,0,.08l-.3.45a.19.19,0,0,1-.09.05.22.22,0,0,1-.14,0l-3.27-.94-.4.61a.19.19,0,0,1-.1.05.23.23,0,0,1-.14,0l-.67-.19-.11-.06a.06.06,0,0,1,0-.08Z" style="fill:#fafafa"></path><path d="M316.76,368.76a1.77,1.77,0,0,1-.5-.35.86.86,0,0,1-.26-.4.65.65,0,0,1,0-.43,1,1,0,0,1,.37-.43,1.79,1.79,0,0,1,.61-.32,2.4,2.4,0,0,1,.69-.13,2.91,2.91,0,0,1,.72.05,3.13,3.13,0,0,1,.68.2l.51.23.49.24a2.23,2.23,0,0,1,.48.32,1.09,1.09,0,0,1,.26.37l.94.07h.06a.09.09,0,0,1,.07.06s0,0,0,.06l-.54.41a.34.34,0,0,1-.15.06h-.13l-.34,0-.12.14a1.07,1.07,0,0,1-.16.14,2.06,2.06,0,0,1-.62.33,2.62,2.62,0,0,1-.68.12,2.91,2.91,0,0,1-.72-.05,3,3,0,0,1-.68-.2l-.51-.23Zm2.62-.82-.21-.11-.25-.12-.26-.11-.22-.1a1.71,1.71,0,0,0-.3-.09,1.42,1.42,0,0,0-.58,0,.89.89,0,0,0-.25.14.4.4,0,0,0-.15.18.2.2,0,0,0,0,.17.55.55,0,0,0,.11.17,1.39,1.39,0,0,0,.22.15l.21.11.25.11.25.12.24.1a1.52,1.52,0,0,0,.59.12,1,1,0,0,0,.54-.19c.15-.12.21-.23.16-.35A.76.76,0,0,0,319.38,367.94Z" style="fill:#fafafa"></path><path d="M321.4,364.36l.13,0a.25.25,0,0,1,.13.05l1.89,1.25a1.68,1.68,0,0,1,.47.44.58.58,0,0,1,.12.42.74.74,0,0,1-.21.4,1.74,1.74,0,0,1-.51.34,2.6,2.6,0,0,1-.68.23,2.91,2.91,0,0,1-.72,0,3,3,0,0,1-.73-.14,3.27,3.27,0,0,1-.68-.33l-1.89-1.26a.1.1,0,0,1-.05-.08s0,0,.05-.07l.64-.3a.24.24,0,0,1,.13,0,.21.21,0,0,1,.12,0l1.88,1.25a1.44,1.44,0,0,0,.58.23,1.14,1.14,0,0,0,.6-.1c.19-.1.28-.2.27-.32s-.11-.24-.3-.36l-1.87-1.25a.09.09,0,0,1-.06-.08.1.1,0,0,1,.06-.07Z" style="fill:#fafafa"></path><path d="M324.82,363.26a.5.5,0,0,1,.21,0l.17.06,3.55,1.88.07.05s0,0,0,.06,0,0-.06.05l-.72.21a.42.42,0,0,1-.19,0,.34.34,0,0,1-.12,0l-.46-.25-1.52.43.15.35a.08.08,0,0,1,0,.07s-.06.06-.13.08l-.72.2H325a.18.18,0,0,1-.1,0l0-.06-1.07-2.59a.17.17,0,0,1,0-.1.19.19,0,0,1,.14-.09Zm.68,1.82.92-.26-1.34-.72Z" style="fill:#fafafa"></path><path d="M331.88,364.24a.23.23,0,0,1,.14,0,.17.17,0,0,1,.1.06l.26.41a0,0,0,0,1,0,.07.11.11,0,0,1-.1,0l-2.9.43a.23.23,0,0,1-.14,0,.19.19,0,0,1-.1-.06l-1.64-2.45a.06.06,0,0,1,0-.08.12.12,0,0,1,.1-.05l.83-.12a.2.2,0,0,1,.13,0,.14.14,0,0,1,.1.06l1.3,1.95Z" style="fill:#fafafa"></path><path d="M333.07,364.81a.25.25,0,0,1-.23-.09l-1.08-2.51a.08.08,0,0,1,0-.08l.11,0,.86,0a.32.32,0,0,1,.14,0s.07,0,.08.07l1.09,2.51a.08.08,0,0,1,0,.08l-.11,0Z" style="fill:#fafafa"></path><path d="M337.78,362l.14,0a.12.12,0,0,1,.07.07l.08.42a.08.08,0,0,1,0,.07l-.12,0-1.19,0,.39,2a.06.06,0,0,1,0,.08.16.16,0,0,1-.12,0h-.88a.28.28,0,0,1-.13,0,.17.17,0,0,1-.07-.08l-.39-2-1.19,0a.33.33,0,0,1-.13,0,.12.12,0,0,1-.07-.07l-.08-.42a.09.09,0,0,1,0-.07.21.21,0,0,1,.12,0Z" style="fill:#fafafa"></path><path d="M341.34,365a.12.12,0,0,1-.07.07.28.28,0,0,1-.13,0l-.88-.11a.29.29,0,0,1-.13,0,.07.07,0,0,1,0-.08l.11-.81-1.35-1.81a.14.14,0,0,1,0-.06s0,0,.05,0a.2.2,0,0,1,.11,0l.93.11a.38.38,0,0,1,.19.07l.08.06.72,1.05,1-.83.09-.05a.46.46,0,0,1,.21,0l.92.11.11,0s0,0,0,.07a.05.05,0,0,1,0,0l-1.78,1.43Z" style="fill:#fafafa"></path><polygon points="343.78 383.94 335.19 383.57 334.88 380.87 340 381.07 338.75 369.98 342.22 370.14 343.78 383.94" style="fill:#6699CC"></polygon><path d="M353.28,366.6l1.46.33,1.15-.48c.28-.11.7,0,.72.24l.08.87,1.29.55c.31.13.27.39-.07.44l-1.41.2-.36.82c-.08.2-.53.22-.76,0l-.95-.74-1.51-.05c-.36,0-.6-.26-.4-.42l.82-.66-.58-.85C352.62,366.69,352.93,366.52,353.28,366.6Z" style="fill:#fafafa"></path><path d="M359.1,371l1,.22.77-.32c.19-.07.47,0,.48.16l.06.58.87.37c.2.09.17.26-.05.3l-.95.13L361,373c0,.13-.36.15-.51,0l-.64-.5-1,0c-.24,0-.4-.17-.27-.28l.55-.45-.39-.56C358.66,371.09,358.87,371,359.1,371Z" style="fill:#fafafa"></path><path d="M346.88,364l1,.22.77-.31c.18-.08.47,0,.48.15l.06.58.86.37c.21.09.18.27,0,.3l-.94.14-.24.54c-.06.13-.36.15-.51,0l-.64-.5-1,0c-.24,0-.39-.17-.26-.28l.55-.44-.39-.57C346.44,364,346.64,363.92,346.88,364Z" style="fill:#fafafa"></path><path d="M319.86,385.89l.58.85-.83.66c-.19.16,0,.41.4.42l1.51,0,1,.75c.22.18.67.15.76,0l.35-.82,1.42-.2c.33-.05.38-.31.07-.44l-1.29-.55-.08-.88c0-.2-.45-.34-.72-.23l-1.15.48-1.47-.34C320,385.51,319.72,385.69,319.86,385.89Z" style="fill:#fafafa"></path><path d="M327.53,389.25l.39.57-.55.45c-.14.1,0,.27.26.27l1,0,.64.5c.15.11.45.1.51,0l.24-.55.94-.14c.23,0,.26-.2,0-.29l-.87-.37-.05-.59c0-.14-.3-.23-.48-.15l-.77.32-1-.23C327.64,389,327.44,389.12,327.53,389.25Z" style="fill:#fafafa"></path><path d="M315.31,382.2l.39.56-.56.45c-.13.11,0,.27.27.28l1,0,.64.5c.16.12.46.1.51,0l.24-.55.95-.13c.23,0,.25-.21.05-.3l-.87-.37-.05-.58c0-.14-.3-.23-.48-.16l-.78.32-1-.22C315.42,381.94,315.21,382.06,315.31,382.2Z" style="fill:#fafafa"></path><path d="M129.93,336.57l.94.54a2.41,2.41,0,0,0,2.16-.18L268.5,258.76c.68-.4.82-1,.31-1.25l-.95-.55a2.47,2.47,0,0,0-2.16.18L130.24,335.32C129.56,335.71,129.42,336.27,129.93,336.57Z" style="fill:#e0e0e0"></path><path d="M135.88,340l.94.54a2.43,2.43,0,0,0,2.16-.17l135.45-78.19c.69-.39.82-.95.31-1.24l-.94-.55a2.47,2.47,0,0,0-2.16.18L136.19,338.75C135.51,339.15,135.37,339.7,135.88,340Z" style="fill:#e0e0e0"></path><path d="M141.54,343.27l.94.54a2.41,2.41,0,0,0,2.16-.18l135.45-78.18c.69-.39.82-.95.31-1.25l-.94-.54a2.41,2.41,0,0,0-2.16.18L141.85,342C141.16,342.41,141,343,141.54,343.27Z" style="fill:#e0e0e0"></path><path d="M167.76,357.56a2.51,2.51,0,0,1-.49.08,1.48,1.48,0,0,1-.79-.09l-13.66-7.88c-.14-.09-.11-.21.08-.32L171,338.91a2.39,2.39,0,0,1,.88-.23,1.59,1.59,0,0,1,.79.09l13.65,7.89c.15.08.12.2-.08.32l-18.08,10.43A1.37,1.37,0,0,1,167.76,357.56Zm-12.95-8.21,12.7,7.33,16.81-9.7-12.7-7.34Z" style="fill:#455a64"></path><path d="M181,334.67l.94.54a2.43,2.43,0,0,0,2.16-.17l61.24-35.35c.68-.4.82-1,.31-1.25l-1-.55a2.47,2.47,0,0,0-2.16.18l-61.23,35.35C180.59,333.82,180.45,334.38,181,334.67Z" style="fill:#e0e0e0"></path><path d="M186.91,338.1l.94.55a2.47,2.47,0,0,0,2.16-.18L298.29,276c.68-.39.82-.95.3-1.24l-.94-.55a2.47,2.47,0,0,0-2.16.18L187.22,336.86C186.54,337.25,186.4,337.81,186.91,338.1Z" style="fill:#e0e0e0"></path><path d="M192.57,341.37l.94.55a2.47,2.47,0,0,0,2.16-.18l108.27-62.52c.69-.39.83-1,.31-1.25l-.94-.54a2.41,2.41,0,0,0-2.16.18L192.88,340.12C192.2,340.52,192.06,341.08,192.57,341.37Z" style="fill:#e0e0e0"></path><polygon points="173.5 350.69 165.09 350.69 165.09 349.07 169.88 349.07 169.88 337.1 173.51 337.1 173.5 350.69" style="fill:#6699CC"></polygon><path d="M191,371a3.73,3.73,0,0,1-.5.08,1.59,1.59,0,0,1-.79-.09L176,363.06c-.15-.08-.12-.2.08-.32l18.08-10.44a2.12,2.12,0,0,1,.87-.22,1.48,1.48,0,0,1,.79.09l13.65,7.88c.15.09.12.21-.08.32l-18.07,10.44A1.5,1.5,0,0,1,191,371Zm-13-8.22,12.7,7.34,16.81-9.71L194.82,353Z" style="fill:#455a64"></path><path d="M204.16,348.07l1,.54a2.41,2.41,0,0,0,2.16-.18l61.23-35.35c.68-.39.82-.95.31-1.25l-.95-.54a2.41,2.41,0,0,0-2.16.18l-61.23,35.35C203.79,347.21,203.65,347.77,204.16,348.07Z" style="fill:#e0e0e0"></path><path d="M210.11,351.5l.94.54a2.43,2.43,0,0,0,2.16-.17l108.28-62.52c.68-.39.82-1,.31-1.25l-.95-.54a2.41,2.41,0,0,0-2.16.18L210.42,350.25C209.74,350.65,209.6,351.2,210.11,351.5Z" style="fill:#e0e0e0"></path><path d="M215.77,354.77l.94.54a2.41,2.41,0,0,0,2.16-.18l108.28-62.51c.68-.4.82-.95.31-1.25l-.95-.55a2.47,2.47,0,0,0-2.16.18L216.08,353.52C215.4,353.91,215.26,354.47,215.77,354.77Z" style="fill:#e0e0e0"></path><polygon points="196.71 364.09 188.3 364.09 188.29 362.46 193.08 362.46 193.09 350.5 196.71 350.5 196.71 364.09" style="fill:#6699CC"></polygon><path d="M214.17,384.35a2.51,2.51,0,0,1-.49.08,1.51,1.51,0,0,1-.8-.09l-13.65-7.88c-.15-.09-.12-.21.08-.32l18.08-10.44a2.33,2.33,0,0,1,.87-.23,1.57,1.57,0,0,1,.79.09l13.66,7.89c.14.08.11.2-.08.32L214.55,384.2A1.5,1.5,0,0,1,214.17,384.35Zm-13-8.21,12.7,7.33,16.81-9.7L218,366.43Z" style="fill:#455a64"></path><path d="M227.37,361.46l.94.55a2.47,2.47,0,0,0,2.16-.18l61.23-35.35c.69-.4.82-1,.31-1.25l-.94-.55a2.47,2.47,0,0,0-2.16.18l-61.24,35.35C227,360.61,226.85,361.17,227.37,361.46Z" style="fill:#e0e0e0"></path><path d="M233.31,364.89l.94.55a2.49,2.49,0,0,0,2.17-.18l108.27-62.51c.68-.4.82-1,.31-1.25l-.95-.55a2.47,2.47,0,0,0-2.16.18L233.62,363.65C232.94,364,232.8,364.6,233.31,364.89Z" style="fill:#e0e0e0"></path><path d="M239,368.16l.94.55a2.49,2.49,0,0,0,2.17-.18L350.35,306c.68-.39.82-.95.31-1.24l-1-.55a2.44,2.44,0,0,0-2.16.18L239.28,366.92C238.6,367.31,238.46,367.87,239,368.16Z" style="fill:#e0e0e0"></path><polygon points="219.91 377.48 211.5 377.48 211.49 375.86 216.28 375.86 216.29 363.89 219.91 363.89 219.91 377.48" style="fill:#6699CC"></polygon><path d="M237.37,397.75a3.58,3.58,0,0,1-.49.08,1.59,1.59,0,0,1-.79-.09l-13.65-7.89c-.15-.08-.12-.2.08-.32l18.08-10.44a2.12,2.12,0,0,1,.87-.22,1.48,1.48,0,0,1,.79.09l13.65,7.88c.15.09.12.21-.08.32L237.76,397.6A1.59,1.59,0,0,1,237.37,397.75Zm-13-8.22,12.7,7.34,16.81-9.71-12.7-7.33Z" style="fill:#455a64"></path><path d="M250.57,374.86l1,.54a2.41,2.41,0,0,0,2.16-.18l61.23-35.35c.68-.39.82-.95.31-1.25l-1-.54a2.41,2.41,0,0,0-2.16.18l-61.23,35.35C250.2,374,250.06,374.56,250.57,374.86Z" style="fill:#e0e0e0"></path><path d="M256.52,378.29l.94.54a2.43,2.43,0,0,0,2.16-.17L367.9,316.14c.68-.39.82-.95.31-1.25l-.95-.54a2.41,2.41,0,0,0-2.16.18L256.83,377C256.15,377.44,256,378,256.52,378.29Z" style="fill:#e0e0e0"></path><path d="M262.18,381.56l.94.54a2.41,2.41,0,0,0,2.16-.18l108.28-62.51c.68-.4.82-1,.3-1.25l-.94-.55a2.47,2.47,0,0,0-2.16.18L262.49,380.31C261.81,380.7,261.67,381.26,262.18,381.56Z" style="fill:#e0e0e0"></path><polygon points="243.12 390.88 234.71 390.88 234.7 389.25 239.49 389.25 239.5 377.29 243.12 377.29 243.12 390.88" style="fill:#6699CC"></polygon><g id="freepik--Clip--inject-4"><g id="freepik--clip--inject-4"><path d="M168.18,243.86h0a2.76,2.76,0,0,0,1.18-2.57,8.72,8.72,0,0,0-4-6.84,2.74,2.74,0,0,0-2.8-.27h0L99.49,270.6l5.59,9.68Z" style="fill:#37474f"></path><path d="M102.27,275.42l65.9-38a8,8,0,0,1,1.18,3.91c0,.16,0,.28,0,.42l-64.88,37.45Z" style="fill:#455a64"></path><path d="M106.25,277.72c0,2.52-1.77,3.54-4,2.28a8.73,8.73,0,0,1-4-6.85c0-2.52,1.77-3.54,4-2.28A8.75,8.75,0,0,1,106.25,277.72Z" style="fill:#263238"></path></g><g id="freepik--clip--inject-4"><path d="M110.47,298.46a7.18,7.18,0,0,1-3.49-.88L90.2,287.89a3.15,3.15,0,0,1-1.8-2.6,2.57,2.57,0,0,1,1.41-2.19l11.9-6.87a1,1,0,0,1,1.36.36,1,1,0,0,1-.36,1.37l-11.9,6.87c-.26.15-.41.32-.41.46s.25.55.8.87L108,295.85a5,5,0,0,0,4.3.22l32.3-18.65a19.09,19.09,0,0,0,6.2-5.87,18.1,18.1,0,0,1,5.63-5.48,8.3,8.3,0,0,1,4.56-1.29,19.07,19.07,0,0,0,10.23-2.73l29.32-16.92c.26-.15.42-.33.42-.47s-.25-.54-.8-.86l-16.79-9.7a5,5,0,0,0-4.3-.22l-10.47,6.05a10.3,10.3,0,0,0-1-1.72l10.5-6.06a6.93,6.93,0,0,1,6.3.22l16.79,9.7a3.11,3.11,0,0,1,1.8,2.58,2.57,2.57,0,0,1-1.42,2.21L172.2,263.79a21.21,21.21,0,0,1-11.31,3,6.61,6.61,0,0,0-3.48,1,16.05,16.05,0,0,0-5,4.88,21,21,0,0,1-6.85,6.47l-32.3,18.65A5.75,5.75,0,0,1,110.47,298.46Z" style="opacity:0.2"></path><path d="M110.47,296.68a7.18,7.18,0,0,1-3.49-.88L90.2,286.11a3.18,3.18,0,0,1-1.8-2.61,2.58,2.58,0,0,1,1.41-2.19l11.9-6.87a1,1,0,0,1,1,1.74l-11.9,6.87c-.26.14-.41.32-.41.45s.25.55.8.87L108,294.06a4.89,4.89,0,0,0,4.3.22l32.3-18.64a19.19,19.19,0,0,0,6.2-5.87,18.25,18.25,0,0,1,5.63-5.49A8.37,8.37,0,0,1,161,263a19.16,19.16,0,0,0,10.23-2.73l29.32-16.93c.26-.15.42-.32.42-.46s-.25-.55-.8-.86l-16.79-9.7a5,5,0,0,0-4.3-.22l-10.47,6a10.22,10.22,0,0,0-1-1.71l10.5-6.07a7,7,0,0,1,6.3.22l16.79,9.7a3.14,3.14,0,0,1,1.8,2.59,2.56,2.56,0,0,1-1.42,2.2L172.2,262a21.31,21.31,0,0,1-11.31,3,6.52,6.52,0,0,0-3.48,1,16.05,16.05,0,0,0-5,4.88,21.15,21.15,0,0,1-6.85,6.47L113.28,296A5.75,5.75,0,0,1,110.47,296.68Z" style="fill:#455a64"></path></g></g></g></g><g id="freepik--box--inject-4"><g id="freepik--box--inject-4"><polygon points="213.37 386.22 351.48 306.48 351.48 81.34 213.37 161.08 213.37 386.22" style="fill:#455a64"></polygon><polygon points="351.48 81.34 274.3 36.78 136.19 116.52 213.37 161.08 351.48 81.34" style="fill:#37474f"></polygon><polygon points="136.19 116.52 136.19 341.66 213.37 386.22 213.37 161.08 136.19 116.52" style="fill:#263238"></polygon><path d="M203.21,184.48V181.3l-56.86-32.83v3.18Zm-56.86-11.62V176l56.86,32.83v-3.18Zm0-8.13v3.18l56.86,32.83v-3.18Zm0-8.13v3.18l56.86,32.83v-3.18Zm0,72.7v3.18l56.86,32.83v-3.18Zm0,8.13v3.18l56.86,32.83v-3.18Z" style="fill:#455a64"></path><path d="M201.08,327.14v33.41c0,1.12-.59,1.69-1.31,1.27l-50-28.87a3.45,3.45,0,0,1-1.32-2.78V296.75c0-1.12.58-1.68,1.31-1.26l50,28.87A3.47,3.47,0,0,1,201.08,327.14Z" style="fill:#fafafa"></path><polygon points="152.67 302.39 154.18 303.26 154.18 330.53 152.67 329.66 152.67 302.39" style="fill:#455a64"></polygon><polygon points="158.83 305.94 161.43 307.48 161.43 334.75 158.83 333.21 158.83 305.94" style="fill:#455a64"></polygon><polygon points="164.98 309.5 166.5 310.37 166.49 337.64 164.98 336.77 164.98 309.5" style="fill:#455a64"></polygon><polygon points="169.62 312.13 172.65 313.92 172.65 341.19 169.62 339.4 169.62 312.13" style="fill:#455a64"></polygon><polygon points="177.29 316.6 178.81 317.47 178.81 344.74 177.29 343.87 177.29 316.6" style="fill:#455a64"></polygon><polygon points="181.73 319.1 184.96 321.03 184.96 348.3 181.73 346.37 181.73 319.1" style="fill:#455a64"></polygon><polygon points="189.61 323.7 191.12 324.58 191.12 351.85 189.6 350.98 189.61 323.7" style="fill:#455a64"></polygon><polygon points="193.12 325.7 193.87 326.14 193.87 353.41 193.12 352.97 193.12 325.7" style="fill:#455a64"></polygon><polygon points="186.8 322.22 187.56 322.66 187.55 349.93 186.8 349.49 186.8 322.22" style="fill:#455a64"></polygon><polygon points="174.4 314.96 175.16 315.39 175.16 342.66 174.4 342.23 174.4 314.96" style="fill:#455a64"></polygon><polygon points="167.61 311.06 168.37 311.5 168.36 338.77 167.61 338.33 167.61 311.06" style="fill:#455a64"></polygon><polygon points="162.73 308.37 163.49 308.8 163.49 336.07 162.73 335.64 162.73 308.37" style="fill:#455a64"></polygon><polygon points="156.12 304.35 156.87 304.79 156.87 332.06 156.12 331.62 156.12 304.35" style="fill:#455a64"></polygon><polygon points="195.76 327.26 197.27 328.13 197.27 355.4 195.76 354.53 195.76 327.26" style="fill:#455a64"></polygon><polygon points="233.37 174.17 331.48 117.53 331.48 258.21 233.37 314.85 233.37 174.17" style="fill:#6699CC"></polygon><polygon points="233.37 174.17 331.48 117.53 331.48 258.21 233.37 314.85 233.37 174.17" style="fill:#fff;opacity:0.45"></polygon><path d="M250,164.55l-16.66,33.94v26.2L268,154.19Zm34-19.62L233.37,248.1v11.54l58.56-119.28Zm-50.65,29.24v7.37l5-10.28Zm98.11,84V232.15l-17.86,36.37Zm-56,32.3,56-113.94v-26.2l-73.9,150.5Zm33-159.71-75.13,153v31l7.8-4.5,90.31-183.93v-8.89ZM298.23,277.4l33.25-67.71V198.15L290.32,282Z" style="fill:#6699CC;opacity:0.2"></path><polygon points="250.21 75.41 237.37 73 198.91 95.2 203.09 102.61 157.59 128.88 158.46 129.38 204.48 102.81 200.31 95.39 237.7 73.8 250.54 76.22 296.57 49.64 295.7 49.14 250.21 75.41" style="fill:#263238"></polygon><path d="M256.82,331.9a10.34,10.34,0,0,0,2.1-3.39,11,11,0,0,0,.72-4c0-1.95-.46-3.21-1.39-3.78s-2.27-.33-4.05.69l-5.51,3.18a1.17,1.17,0,0,0-.41.46,1.43,1.43,0,0,0-.17.64v18.38a.55.55,0,0,0,.17.45.36.36,0,0,0,.41,0l1.73-1a1,1,0,0,0,.4-.46,1.32,1.32,0,0,0,.18-.64v-6.63l2.83-1.64,2.8,5a.89.89,0,0,0,.29.33q.19.15.63-.09l1.81-1.05a.84.84,0,0,0,.33-.38,1.13,1.13,0,0,0,.14-.52.66.66,0,0,0-.06-.27Zm-.79-3.1a6.19,6.19,0,0,1-1.94,1.69L251,332.27v-5.4l3.09-1.79a3.15,3.15,0,0,1,1.94-.58c.49.08.73.65.73,1.72A4.22,4.22,0,0,1,256,328.8Zm-11.67,0c-1-.53-2.29-.29-4,.7l-5.72,3.3a1.1,1.1,0,0,0-.41.46,1.43,1.43,0,0,0-.17.64v18.39a.54.54,0,0,0,.17.44.36.36,0,0,0,.41,0l1.73-1a1.09,1.09,0,0,0,.4-.46,1.43,1.43,0,0,0,.17-.64v-6.34l3.42-2a10.66,10.66,0,0,0,4-4,11,11,0,0,0,1.43-5.61C245.79,330.6,245.31,329.3,244.36,328.76ZM242.18,337a5.9,5.9,0,0,1-1.94,1.76l-3.31,1.91V335l3.31-1.91a2.72,2.72,0,0,1,1.94-.51c.49.13.73.72.73,1.78A4.56,4.56,0,0,1,242.18,337ZM289,306a3.53,3.53,0,0,0-1.19-1.78,2.66,2.66,0,0,0-1.94-.46,7.11,7.11,0,0,0-2.74,1l-5.28,3a1.09,1.09,0,0,0-.4.46,1.31,1.31,0,0,0-.17.64v18.38a.52.52,0,0,0,.17.45.35.35,0,0,0,.4,0l5.38-3.11a11.44,11.44,0,0,0,2.68-2.1,12,12,0,0,0,1.91-2.68,13.73,13.73,0,0,0,1.18-3.16,18.31,18.31,0,0,0,.51-3.53c.05-1.44.05-2.84,0-4.21A10.8,10.8,0,0,0,289,306Zm-2.38,8.83a9.16,9.16,0,0,1-.26,1.86,7.71,7.71,0,0,1-.65,1.74,7.2,7.2,0,0,1-1.07,1.52,6.65,6.65,0,0,1-1.51,1.2l-3,1.71V310l2.86-1.66a4.05,4.05,0,0,1,1.58-.58,1.54,1.54,0,0,1,1.1.28,2,2,0,0,1,.66,1,5.32,5.32,0,0,1,.26,1.54C286.67,312,286.67,313.37,286.61,314.81ZM310.25,295a7.68,7.68,0,0,1,.64-1.74,7.2,7.2,0,0,1,1-1.5,5.56,5.56,0,0,1,1.45-1.18,4.23,4.23,0,0,1,1.45-.57,1.84,1.84,0,0,1,1,.1,1.43,1.43,0,0,1,.64.6,2.31,2.31,0,0,1,.3.94q0,.35.24.42a.45.45,0,0,0,.4-.05l1.73-1a1.15,1.15,0,0,0,.42-.45,1.18,1.18,0,0,0,.16-.65,6.76,6.76,0,0,0-.44-2.07,3,3,0,0,0-1.14-1.46,3.13,3.13,0,0,0-1.94-.41,6.85,6.85,0,0,0-2.84,1,11,11,0,0,0-2.61,2.09,13.15,13.15,0,0,0-1.92,2.73,14.73,14.73,0,0,0-1.22,3.19,17,17,0,0,0-.53,3.47c0,.73,0,1.54,0,2.41s0,1.66,0,2.37a9.65,9.65,0,0,0,.53,2.85,3.69,3.69,0,0,0,1.22,1.78,2.88,2.88,0,0,0,1.92.52,6.27,6.27,0,0,0,2.61-.92,12.07,12.07,0,0,0,2.84-2.24,14,14,0,0,0,1.94-2.66,12.41,12.41,0,0,0,1.14-2.76,12.21,12.21,0,0,0,.44-2.59c0-.23,0-.39-.16-.46a.4.4,0,0,0-.42,0l-1.73,1a1.19,1.19,0,0,0-.39.41,1.61,1.61,0,0,0-.23.68,5.84,5.84,0,0,1-.29,1.28,6.73,6.73,0,0,1-.66,1.35,7.11,7.11,0,0,1-1,1.29,6.78,6.78,0,0,1-1.45,1.11,3.21,3.21,0,0,1-1.45.5,1.56,1.56,0,0,1-1-.32,2,2,0,0,1-.64-1,5.26,5.26,0,0,1-.26-1.54c0-.7-.05-1.49-.05-2.36s0-1.68.05-2.42A9.07,9.07,0,0,1,310.25,295Zm-35.8,22.21a9.43,9.43,0,0,0-.47-2.75,3.83,3.83,0,0,0-1.17-1.77,2.74,2.74,0,0,0-1.92-.54,6.29,6.29,0,0,0-2.71,1,10.75,10.75,0,0,0-2.74,2.19,13.27,13.27,0,0,0-1.92,2.76,13.43,13.43,0,0,0-1.16,3.12,16.63,16.63,0,0,0-.46,3.26c0,.37,0,.77,0,1.22s0,.89,0,1.35,0,.92,0,1.35,0,.82,0,1.17a10,10,0,0,0,.46,2.74,3.63,3.63,0,0,0,1.16,1.78,2.78,2.78,0,0,0,1.92.52,6.42,6.42,0,0,0,2.74-1,11.51,11.51,0,0,0,2.72-2.16,13.14,13.14,0,0,0,1.93-2.75,13.77,13.77,0,0,0,1.16-3.12,16.72,16.72,0,0,0,.46-3.27c0-.37,0-.77,0-1.21s0-.9,0-1.36,0-.91,0-1.35S274.46,317.55,274.45,317.2Zm-2.88,6.61a8.36,8.36,0,0,1-1,3.73,6.5,6.5,0,0,1-2.4,2.5c-1,.57-1.8.67-2.4.28s-.94-1.26-1-2.59c0-.71,0-1.5,0-2.38s0-1.69,0-2.43a8.28,8.28,0,0,1,1-3.74,6.35,6.35,0,0,1,2.4-2.52,2.24,2.24,0,0,1,2.4-.26,3.15,3.15,0,0,1,1,2.6c0,.71,0,1.5,0,2.38S271.6,323.07,271.57,323.81Zm61-47.38a.35.35,0,0,0-.4,0l-10.56,6.1a1,1,0,0,0-.41.46,1.43,1.43,0,0,0-.17.64v2a.52.52,0,0,0,.17.44.33.33,0,0,0,.41,0l3.84-2.21v15.59a.49.49,0,0,0,.17.44.33.33,0,0,0,.4,0l1.73-1a1.1,1.1,0,0,0,.41-.46,1.43,1.43,0,0,0,.17-.64v-15.6l3.84-2.21a1.05,1.05,0,0,0,.4-.47,1.3,1.3,0,0,0,.18-.64v-2A.53.53,0,0,0,332.58,276.43ZM303.84,292.8l-1.71,1a1,1,0,0,0-.4.46,1.32,1.32,0,0,0-.18.64v11.52a8.93,8.93,0,0,1-.24,2.14,7.49,7.49,0,0,1-.67,1.74,5.84,5.84,0,0,1-1,1.36,6.24,6.24,0,0,1-1.31,1,4.06,4.06,0,0,1-1.3.51,1.42,1.42,0,0,1-1-.17,1.86,1.86,0,0,1-.66-1,5.87,5.87,0,0,1-.23-1.86V298.63a.54.54,0,0,0-.17-.44.36.36,0,0,0-.41,0l-1.73,1a1.09,1.09,0,0,0-.4.46,1.31,1.31,0,0,0-.17.64V312a10.19,10.19,0,0,0,.37,3,3.41,3.41,0,0,0,1.14,1.78,2.64,2.64,0,0,0,1.91.48,6.89,6.89,0,0,0,2.68-1,11.48,11.48,0,0,0,2.67-2.1,12.28,12.28,0,0,0,1.92-2.68,13.4,13.4,0,0,0,1.15-3.12,14.65,14.65,0,0,0,.38-3.4V293.24a.49.49,0,0,0-.17-.44A.33.33,0,0,0,303.84,292.8Z" style="fill:#f0f0f0"></path></g></g><g id="freepik--Label--inject-4"><g id="freepik--Ribbon--inject-4"><polygon points="199.6 232.64 216.75 308.05 223.59 289.91 229.76 273.47 239.82 274.75 250.88 276.15 233.74 200.74 199.6 232.64" style="fill:#6699CC"></polygon><g style="opacity:0.25"><polygon points="199.6 232.64 216.75 308.05 223.59 289.91 229.76 273.47 239.82 274.75 250.88 276.15 233.74 200.74 199.6 232.64" style="fill:#fff"></polygon></g><polygon points="218.37 286.33 205.24 228.56 206.9 227 219.03 280.35 226.65 260.19 239 261.65 226.88 208.33 228.55 206.78 241.69 264.56 227.25 262.85 218.37 286.33" style="fill:#6699CC"></polygon><g style="opacity:0.2"><polygon points="218.37 286.33 205.24 228.56 206.9 227 219.03 280.35 226.65 260.19 239 261.65 226.88 208.33 228.55 206.78 241.69 264.56 227.25 262.85 218.37 286.33"></polygon></g><polygon points="212.5 289.35 225.26 218.48 211.52 221.5 199.6 232.64 212.5 289.35" style="fill:#6699CC;opacity:0.5"></polygon><polygon points="222.55 219.39 205.4 314.6 198.56 304.36 192.39 295.05 182.34 307.93 171.27 322.11 188.42 226.9 222.55 219.39" style="fill:#6699CC"></polygon><g style="opacity:0.5"><polygon points="222.55 219.39 205.4 314.6 198.56 304.36 192.39 295.05 182.34 307.93 171.27 322.11 188.42 226.9 222.55 219.39" style="fill:#fff"></polygon></g><polygon points="203.78 294.75 194.9 281.52 180.47 299.91 193.6 226.95 195.27 226.58 183.15 293.9 195.5 278.17 203.12 289.53 215.25 222.19 216.91 221.82 203.78 294.75" style="fill:#6699CC"></polygon><path d="M233.74,200.74l-22.66,21.17-22.66,5-5.72,31.76a4.84,4.84,0,0,0,4.46-.51,10.41,10.41,0,0,0,1.86-1.4,3.21,3.21,0,0,1,.54-.41,1.25,1.25,0,0,1,2,.9c.86,3.71,3.75,5,7,3.09a12.94,12.94,0,0,0,4.13-4.12,3.6,3.6,0,0,1,1.19-1.18,1.22,1.22,0,0,1,1.71.19c1.36,1.78,3.58,2,5.94.67a15.5,15.5,0,0,0,5.94-7.53,4.52,4.52,0,0,1,1.71-2.17,1.4,1.4,0,0,1,1.18-.18,5,5,0,0,0,4.14-.66c3.28-1.89,6.17-6.5,7-11.21a4.85,4.85,0,0,1,2-3.21,2.13,2.13,0,0,1,.53-.22A6.48,6.48,0,0,0,236,230a12.52,12.52,0,0,0,3.63-3.4Z" style="fill:#6699CC;opacity:0.5"></path><path d="M215.39,139.16h0c1.48,2,4.38,1,6.49-2.22h0c2.66-4,6.34-4.33,7.19-.66h0c.67,2.92,3.22,3.41,5.7,1.1h0c3.13-2.9,6.13-1.28,5.86,3.17h0c-.21,3.54,1.68,5.45,4.24,4.29h0c3.22-1.47,5.18,1.92,3.82,6.62h0c-1.08,3.73-.07,6.84,2.26,7h0c2.92.14,3.6,4.89,1.32,9.27h0c-1.81,3.47-1.81,7.4,0,8.79h0c2.28,1.74,1.6,7.28-1.32,10.8h0c-2.33,2.8-3.34,7.07-2.26,9.56h0c1.36,3.13-.6,8.79-3.82,11h0a11.42,11.42,0,0,0-4.24,9.18h0c.27,4.13-2.73,9.22-5.86,9.93h0c-2.48.56-5,4-5.7,7.69h0c-.85,4.65-4.53,8.56-7.19,7.63h0c-2.11-.73-5,1.62-6.49,5.28h0c-1.86,4.59-5.78,6.86-7.64,4.41h0c-1.49-1.94-4.39-.95-6.5,2.22h0c-2.65,4-6.33,4.33-7.18.66h0c-.68-2.91-3.22-3.4-5.71-1.09h0c-3.12,2.9-6.12,1.28-5.86-3.18h0c.22-3.53-1.67-5.45-4.23-4.28h0c-3.22,1.46-5.18-1.93-3.83-6.62h0c1.08-3.74.08-6.84-2.25-7h0c-2.92-.15-3.6-4.9-1.33-9.27h0c1.81-3.48,1.81-7.4,0-8.79h0c-2.27-1.75-1.59-7.28,1.33-10.81h0c2.33-2.8,3.33-7.07,2.25-9.56h0c-1.35-3.13.61-8.78,3.83-11h0a11.39,11.39,0,0,0,4.23-9.18h0c-.26-4.14,2.74-9.23,5.86-9.93h0c2.49-.56,5-4,5.71-7.69h0c.85-4.65,4.53-8.56,7.18-7.64h0c2.11.74,5-1.62,6.5-5.27h0C209.61,139,213.53,136.72,215.39,139.16Z" style="fill:#6699CC"></path><path d="M215.39,139.16h0c1.48,2,4.38,1,6.49-2.22h0c2.66-4,6.34-4.33,7.19-.66h0c.67,2.92,3.22,3.41,5.7,1.1h0c3.13-2.9,6.13-1.28,5.86,3.17h0c-.21,3.54,1.68,5.45,4.24,4.29h0c3.22-1.47,5.18,1.92,3.82,6.62h0c-1.08,3.73-.07,6.84,2.26,7h0c2.92.14,3.6,4.89,1.32,9.27h0c-1.81,3.47-1.81,7.4,0,8.79h0c2.28,1.74,1.6,7.28-1.32,10.8h0c-2.33,2.8-3.34,7.07-2.26,9.56h0c1.36,3.13-.6,8.79-3.82,11h0a11.42,11.42,0,0,0-4.24,9.18h0c.27,4.13-2.73,9.22-5.86,9.93h0c-2.48.56-5,4-5.7,7.69h0c-.85,4.65-4.53,8.56-7.19,7.63h0c-2.11-.73-5,1.62-6.49,5.28h0c-1.86,4.59-5.78,6.86-7.64,4.41h0c-1.49-1.94-4.39-.95-6.5,2.22h0c-2.65,4-6.33,4.33-7.18.66h0c-.68-2.91-3.22-3.4-5.71-1.09h0c-3.12,2.9-6.12,1.28-5.86-3.18h0c.22-3.53-1.67-5.45-4.23-4.28h0c-3.22,1.46-5.18-1.93-3.83-6.62h0c1.08-3.74.08-6.84-2.25-7h0c-2.92-.15-3.6-4.9-1.33-9.27h0c1.81-3.48,1.81-7.4,0-8.79h0c-2.27-1.75-1.59-7.28,1.33-10.81h0c2.33-2.8,3.33-7.07,2.25-9.56h0c-1.35-3.13.61-8.78,3.83-11h0a11.39,11.39,0,0,0,4.23-9.18h0c-.26-4.14,2.74-9.23,5.86-9.93h0c2.49-.56,5-4,5.71-7.69h0c.85-4.65,4.53-8.56,7.18-7.64h0c2.11.74,5-1.62,6.5-5.27h0C209.61,139,213.53,136.72,215.39,139.16Z" style="fill:#fff;opacity:0.7000000000000001"></path><ellipse cx="211.57" cy="195.58" rx="53.82" ry="30.45" transform="translate(-51.24 313.68) rotate(-66.95)" style="fill:#6699CC"></ellipse><ellipse cx="211.57" cy="195.58" rx="36.03" ry="20.38" transform="translate(-51.24 313.68) rotate(-66.95)" style="fill:#fafafa"></ellipse><path d="M211.57,229.29c-13.94,8.05-25.28-.52-25.28-19.11s11.34-40.26,25.28-48.3,25.28.52,25.28,19.11S225.51,221.24,211.57,229.29Zm0-62.59c-11.94,6.9-21.66,25.46-21.66,41.39s9.72,23.27,21.66,16.37,21.66-25.46,21.66-41.38S223.51,159.81,211.57,166.7Z" style="fill:#6699CC"></path><g style="opacity:0.30000000000000004"><path d="M211.57,229.29c-13.94,8.05-25.28-.52-25.28-19.11s11.34-40.26,25.28-48.3,25.28.52,25.28,19.11S225.51,221.24,211.57,229.29Zm0-62.59c-11.94,6.9-21.66,25.46-21.66,41.39s9.72,23.27,21.66,16.37,21.66-25.46,21.66-41.38S223.51,159.81,211.57,166.7Z"></path></g><path d="M194.79,237.54c0,.09-.09.21-.15.37s-.13.32-.19.49-.13.34-.19.5l-.13.38a2.25,2.25,0,0,0-.12.48,1.21,1.21,0,0,0,0,.42.78.78,0,0,0,.13.34.58.58,0,0,0,.31.2.67.67,0,0,0,.37,0,1,1,0,0,0,.3-.13,1.25,1.25,0,0,0,.23-.23,1.59,1.59,0,0,0,.17-.25,1.4,1.4,0,0,1,.16-.22.19.19,0,0,1,.17,0l.79.23s.06,0,.07.1a.35.35,0,0,1,0,.17,3.84,3.84,0,0,1-.54,1,2.94,2.94,0,0,1-.71.7,2.32,2.32,0,0,1-.8.37,1.67,1.67,0,0,1-.83,0,1.39,1.39,0,0,1-.69-.45,2,2,0,0,1-.36-.78,3.36,3.36,0,0,1,0-1A6,6,0,0,1,193,239c.1-.29.21-.6.34-.92s.25-.64.37-.93a5.26,5.26,0,0,1,.56-1,3.69,3.69,0,0,1,.72-.79,2.24,2.24,0,0,1,.82-.43,1.61,1.61,0,0,1,.87,0,1.34,1.34,0,0,1,.66.43,1.8,1.8,0,0,1,.39.72,2.54,2.54,0,0,1,.09.93,3.61,3.61,0,0,1-.23,1,.31.31,0,0,1-.1.15.12.12,0,0,1-.12,0l-.79-.23a.15.15,0,0,1-.12-.11,1,1,0,0,1,0-.26c0-.08,0-.18,0-.29a.75.75,0,0,0,0-.3.7.7,0,0,0-.14-.27.62.62,0,0,0-.31-.18.71.71,0,0,0-.38,0,1.08,1.08,0,0,0-.34.2,1.72,1.72,0,0,0-.28.35A3.61,3.61,0,0,0,194.79,237.54Z" style="fill:#fafafa"></path><path d="M200.67,241.27a.11.11,0,0,1,.11.09.28.28,0,0,1,0,.2l-.3,1.12a.56.56,0,0,1-.11.2.22.22,0,0,1-.15.08l-3.15,0a.12.12,0,0,1-.11-.08.37.37,0,0,1,0-.21l1.88-6.81a.64.64,0,0,1,.11-.2.19.19,0,0,1,.15-.08h3.1a.11.11,0,0,1,.11.09.35.35,0,0,1,0,.2L202,237a.47.47,0,0,1-.1.2.22.22,0,0,1-.15.08h-2l-.32,1.14h1.91a.11.11,0,0,1,.1.09.34.34,0,0,1,0,.2l-.31,1.11a.43.43,0,0,1-.11.2.2.2,0,0,1-.15.09h-1.9l-.33,1.18Z" style="fill:#fafafa"></path><path d="M205,235a1.91,1.91,0,0,1,.8-.06.9.9,0,0,1,.55.29,1.15,1.15,0,0,1,.27.64,3.36,3.36,0,0,1,0,1,4.56,4.56,0,0,1-.44,1.35,3,3,0,0,1-.75.93l.45,2.27a.21.21,0,0,1,0,.11.36.36,0,0,1-.07.17.24.24,0,0,1-.12.09l-1,.24c-.09,0-.15,0-.18,0a1.11,1.11,0,0,1-.07-.16l-.4-2-.65.16-.38,2.23a.48.48,0,0,1-.09.21.24.24,0,0,1-.14.11l-.93.23a.11.11,0,0,1-.12,0,.37.37,0,0,1,0-.19l1.14-6.72a.4.4,0,0,1,.09-.21.27.27,0,0,1,.15-.12Zm-1.33,3.34.79-.19a1.08,1.08,0,0,0,.52-.29,1.1,1.1,0,0,0,.3-.65c0-.29,0-.47-.1-.55a.53.53,0,0,0-.46,0l-.79.19Z" style="fill:#fafafa"></path><path d="M211.22,232.56a.1.1,0,0,1,.13,0s.05.08.05.16l-.06,1.06a.58.58,0,0,1-.07.21.34.34,0,0,1-.14.15l-1.28.59-.3,5.13a.63.63,0,0,1-.07.22.33.33,0,0,1-.15.14l-.94.44a.12.12,0,0,1-.14,0,.2.2,0,0,1,0-.16l.3-5.13-1.27.59a.1.1,0,0,1-.13,0,.21.21,0,0,1-.05-.16l.06-1.06a.57.57,0,0,1,.07-.22.31.31,0,0,1,.14-.14Z" style="fill:#fafafa"></path><path d="M212.19,238.68a.11.11,0,0,1-.14,0s-.06-.07-.06-.14l-.16-6.16a.49.49,0,0,1,.06-.22A.35.35,0,0,1,212,232l.95-.59c.06,0,.1,0,.14,0a.19.19,0,0,1,.07.14l.15,6.16a.44.44,0,0,1-.05.22.32.32,0,0,1-.14.16Z" style="fill:#fafafa"></path><path d="M217.45,228.11a.13.13,0,0,1,.14,0,.14.14,0,0,1,.08.12l.12,1a.6.6,0,0,1,0,.22.49.49,0,0,1-.13.18l-2.14,1.67.14,1.22,2-1.56a.13.13,0,0,1,.14,0,.14.14,0,0,1,.08.12l.11.95a.44.44,0,0,1,0,.22.64.64,0,0,1-.13.18l-2,1.55.23,1.94a.34.34,0,0,1,0,.21.35.35,0,0,1-.13.18l-.94.73a.16.16,0,0,1-.14,0,.16.16,0,0,1-.08-.13l-.7-5.78a.6.6,0,0,1,0-.22.45.45,0,0,1,.13-.17Z" style="fill:#fafafa"></path><path d="M219.69,233a.17.17,0,0,1-.14.05c-.05,0-.08,0-.1-.1l-1.23-5.32a.32.32,0,0,1,0-.21.41.41,0,0,1,.12-.19l.91-.86a.17.17,0,0,1,.15-.06.11.11,0,0,1,.09.1l1.24,5.32a.4.4,0,0,1,0,.21.52.52,0,0,1-.12.19Z" style="fill:#fafafa"></path><path d="M225.07,225.71a.22.22,0,0,1,.15-.08.12.12,0,0,1,.11.08l.29.78a.34.34,0,0,1,0,.2.43.43,0,0,1-.11.2l-3.19,3.58a.19.19,0,0,1-.15.08.11.11,0,0,1-.1-.08l-1.77-4.77a.34.34,0,0,1,0-.2.43.43,0,0,1,.11-.2l3.13-3.51a.2.2,0,0,1,.15-.09.11.11,0,0,1,.1.08l.3.79a.35.35,0,0,1,0,.2.47.47,0,0,1-.1.2l-2.07,2.32.29.8,1.93-2.16a.21.21,0,0,1,.15-.08c.05,0,.08,0,.1.08l.29.78a.34.34,0,0,1,0,.2.43.43,0,0,1-.11.2l-1.92,2.16.31.82Z" style="fill:#fafafa"></path><path d="M226.05,218.41a5.21,5.21,0,0,1,.85-1,2.52,2.52,0,0,1,.83-.51,1.18,1.18,0,0,1,.74,0,1.14,1.14,0,0,1,.59.44l.16.23.13.2.12.19a2.55,2.55,0,0,1,.14.24,2.16,2.16,0,0,1,.27.9,3.62,3.62,0,0,1,0,1.08,5.37,5.37,0,0,1-.38,1.18,5.94,5.94,0,0,1-.69,1.21l-1.66,2.34a.4.4,0,0,1-.15.12.1.1,0,0,1-.12-.05l-2.48-3.87a.24.24,0,0,1,0-.19.49.49,0,0,1,.08-.21Zm1.86.51c-.32-.42-.75-.26-1.28.49l-.63.89,1.46,2.28.66-.93q.78-1.1.36-1.83a2.55,2.55,0,0,0-.14-.24l-.14-.22c0-.07-.09-.14-.14-.21A2.22,2.22,0,0,0,227.91,218.92Z" style="fill:#fafafa"></path><path d="M188.44,190.1a.38.38,0,0,1-.14.2.15.15,0,0,1-.16,0l-4.22-1.7a.16.16,0,0,1-.09-.14.51.51,0,0,1,0-.24l1.55-3.7a6.13,6.13,0,0,1,.66-1.24,3.16,3.16,0,0,1,.67-.72,1.4,1.4,0,0,1,.63-.28,1.06,1.06,0,0,1,.54.06.68.68,0,0,1,.3.21,1.34,1.34,0,0,1,.17.27,1,1,0,0,1,.07.28c0,.09,0,.16,0,.22a1.55,1.55,0,0,1,.67-.46,1,1,0,0,1,.63,0,1.14,1.14,0,0,1,.47.35,1.29,1.29,0,0,1,.26.64,2.79,2.79,0,0,1,0,.95,5.62,5.62,0,0,1-.4,1.29Zm-1.39-5.57a.32.32,0,0,0-.34.06,1.12,1.12,0,0,0-.32.49l-.75,1.77.75.31.74-1.78a1.12,1.12,0,0,0,.12-.57A.31.31,0,0,0,187.05,184.53Zm1.14,3.35L189,186a1.19,1.19,0,0,0,.12-.6.35.35,0,0,0-.2-.32.35.35,0,0,0-.37.09,1.26,1.26,0,0,0-.34.51l-.8,1.89Z" style="fill:#fafafa"></path><path d="M193.76,176.55a.34.34,0,0,1,.15-.16.13.13,0,0,1,.16,0l.58.51a.19.19,0,0,1,0,.18.44.44,0,0,1-.07.24l-2.83,5.1a.31.31,0,0,1-.16.16.12.12,0,0,1-.15,0l-3.54-3.1a.21.21,0,0,1,0-.18.44.44,0,0,1,.07-.24l2.78-5a.41.41,0,0,1,.16-.16.14.14,0,0,1,.15,0l.58.51a.24.24,0,0,1,.06.18.73.73,0,0,1-.07.24l-1.84,3.32.59.52,1.71-3.08a.36.36,0,0,1,.15-.17c.07,0,.12,0,.16,0l.58.51a.18.18,0,0,1,.05.17.45.45,0,0,1-.07.25l-1.7,3.07.61.54Z" style="fill:#fafafa"></path><path d="M194.08,168.93a5.75,5.75,0,0,1,.89-1,3.67,3.67,0,0,1,.84-.57,1.37,1.37,0,0,1,.69-.16.59.59,0,0,1,.45.23.26.26,0,0,1,0,.16.37.37,0,0,1-.08.19L196,169a.83.83,0,0,1-.17.19l-.17.08-.11,0a.87.87,0,0,0-.19.08,1.3,1.3,0,0,0-.26.2,3.68,3.68,0,0,0-.33.39c-.09.13-.17.25-.24.37a4,4,0,0,0-.18.36,1,1,0,0,0-.08.31.39.39,0,0,0,0,.25.15.15,0,0,0,.18.08.92.92,0,0,0,.3-.19c.12-.1.28-.26.48-.46L196,170a8.36,8.36,0,0,1,.78-.74,2.3,2.3,0,0,1,.66-.38.74.74,0,0,1,.53,0,1.1,1.1,0,0,1,.45.42,1.65,1.65,0,0,1,.23.83,4.11,4.11,0,0,1-.16,1.09,7.06,7.06,0,0,1-.49,1.24,9.84,9.84,0,0,1-.78,1.29,7,7,0,0,1-.94,1.08,3.53,3.53,0,0,1-.86.61,1.41,1.41,0,0,1-.73.17.62.62,0,0,1-.48-.27.23.23,0,0,1,0-.17.44.44,0,0,1,.07-.19l.9-1.26a1.15,1.15,0,0,1,.17-.19.55.55,0,0,1,.15-.08l.14,0a.76.76,0,0,0,.23-.09,1.18,1.18,0,0,0,.3-.21,2.68,2.68,0,0,0,.38-.45,5.45,5.45,0,0,0,.56-.93c.13-.28.16-.49.07-.62s-.11-.08-.2,0a1.56,1.56,0,0,0-.34.25c-.15.13-.32.31-.53.53l-.75.79a2.86,2.86,0,0,1-1.35,1,.83.83,0,0,1-.91-.46,1.75,1.75,0,0,1-.22-.75,3.29,3.29,0,0,1,.1-1,5.81,5.81,0,0,1,.41-1.19A8.18,8.18,0,0,1,194.08,168.93Z" style="fill:#fafafa"></path><path d="M201.59,160a.22.22,0,0,1,.17-.09.11.11,0,0,1,.11.09l.31.89a.44.44,0,0,1,0,.23.66.66,0,0,1-.12.22l-1.33,1.45,1.49,4.31a.44.44,0,0,1,0,.23.66.66,0,0,1-.12.22l-1,1.08a.24.24,0,0,1-.17.09c-.06,0-.09,0-.12-.09l-1.49-4.31L198,165.8a.17.17,0,0,1-.16.09.12.12,0,0,1-.12-.09l-.31-.89a.34.34,0,0,1,0-.22.46.46,0,0,1,.12-.23Z" style="fill:#fafafa"></path><path d="M205.06,159.68a5.07,5.07,0,0,1,.1-1.21,5.44,5.44,0,0,1,.4-1.24,5.88,5.88,0,0,1,.72-1.16,5.44,5.44,0,0,1,1-1,3.36,3.36,0,0,1,1.07-.56,1.36,1.36,0,0,1,.83,0,1.14,1.14,0,0,1,.58.51,2.83,2.83,0,0,1,.3.93c0,.28.07.58.1.9s.06.62.07.9a4.92,4.92,0,0,1-.07,1.14,5.34,5.34,0,0,1-.35,1.14l.75.69a.05.05,0,0,1,0,0l0,0a.32.32,0,0,1,0,.19.74.74,0,0,1-.12.16l-1.14.84c-.1.07-.18.1-.23.08A.5.5,0,0,1,209,162l-.27-.26c-.1.12-.22.23-.33.34l-.37.3A3.36,3.36,0,0,1,207,163a1.29,1.29,0,0,1-.83,0,1.14,1.14,0,0,1-.58-.51,2.43,2.43,0,0,1-.3-.93c0-.27-.07-.56-.1-.88S205.08,160,205.06,159.68Zm3.71-.86c0-.12,0-.26,0-.41s0-.31,0-.47,0-.3-.05-.44,0-.27-.06-.38a1.41,1.41,0,0,0-.13-.41.45.45,0,0,0-.23-.22.46.46,0,0,0-.33,0,1.1,1.1,0,0,0-.44.23,2.1,2.1,0,0,0-.43.41,1.94,1.94,0,0,0-.28.48,2,2,0,0,0-.16.51,2.37,2.37,0,0,0,0,.53c0,.13,0,.26,0,.41s0,.3,0,.45,0,.31,0,.46a3.74,3.74,0,0,0,.05.39.89.89,0,0,0,.36.64c.19.1.45,0,.78-.22a2.12,2.12,0,0,0,.71-.88A2.81,2.81,0,0,0,208.77,158.82Z" style="fill:#fafafa"></path><path d="M216.28,150.07a.13.13,0,0,1,.15,0,.22.22,0,0,1,0,.19l-.26,4.45a6,6,0,0,1-.26,1.44,5.31,5.31,0,0,1-.56,1.23,4.84,4.84,0,0,1-.82,1,4,4,0,0,1-1,.68,2.52,2.52,0,0,1-1,.26,1.07,1.07,0,0,1-.74-.25,1.49,1.49,0,0,1-.45-.76,4.09,4.09,0,0,1-.09-1.27l.26-4.46a.57.57,0,0,1,.08-.24.41.41,0,0,1,.16-.16l1.06-.49a.12.12,0,0,1,.15,0,.31.31,0,0,1,0,.19l-.26,4.4a1.41,1.41,0,0,0,.17.94c.14.18.38.19.7,0a1.63,1.63,0,0,0,.75-.72,2.87,2.87,0,0,0,.3-1.16L215,151a.46.46,0,0,1,.08-.25.35.35,0,0,1,.16-.16Z" style="fill:#fafafa"></path><path d="M221.15,148.86c.11,0,.18,0,.21.08a.61.61,0,0,1,.07.24l.26,7a1,1,0,0,1,0,.17.48.48,0,0,1-.09.19.23.23,0,0,1-.13.1l-1,.18c-.11,0-.17,0-.21-.05a.39.39,0,0,1,0-.18l0-.93-2.07.39-.41,1a.78.78,0,0,1-.12.21.36.36,0,0,1-.24.14l-1,.18a.09.09,0,0,1-.1,0,.24.24,0,0,1,0-.17.89.89,0,0,1,.07-.18l3.13-7.69a1,1,0,0,1,.16-.27.42.42,0,0,1,.26-.18Zm-2.25,5.34,1.26-.24-.09-2.68Z" style="fill:#fafafa"></path><path d="M226.07,155.25a.14.14,0,0,1,.11.11.38.38,0,0,1,0,.23l-.39,1.25a.55.55,0,0,1-.12.21.21.21,0,0,1-.17.08l-3.34-.35c-.06,0-.09,0-.11-.11a.46.46,0,0,1,0-.23l2.39-7.59a.54.54,0,0,1,.13-.22.22.22,0,0,1,.16-.08l.95.1a.14.14,0,0,1,.11.11.47.47,0,0,1,0,.23l-1.89,6Z" style="fill:#fafafa"></path><path d="M226.24,157.46c-.05,0-.08-.06-.09-.13a.41.41,0,0,1,0-.24l3-7.46a.64.64,0,0,1,.14-.2c.07-.05.12-.07.17-.05l.87.3a.16.16,0,0,1,.09.14.53.53,0,0,1,0,.24l-3,7.46a.48.48,0,0,1-.14.2.19.19,0,0,1-.16.05Z" style="fill:#fafafa"></path><path d="M235,152.28s.07.08.07.16a.52.52,0,0,1-.05.24l-.59,1.18a.45.45,0,0,1-.15.18.16.16,0,0,1-.16,0l-1.05-.69-2.81,5.71a.45.45,0,0,1-.15.18.16.16,0,0,1-.16,0l-.78-.51a.18.18,0,0,1-.07-.17.43.43,0,0,1,0-.24l2.82-5.7-1.05-.69a.17.17,0,0,1-.07-.16.53.53,0,0,1,.06-.24l.58-1.18a.45.45,0,0,1,.15-.18.16.16,0,0,1,.16,0Z" style="fill:#fafafa"></path><path d="M233.53,162.32a.34.34,0,0,1-.17.15.12.12,0,0,1-.14,0l-.63-.77a.25.25,0,0,1,0-.2.57.57,0,0,1,.08-.24l1.39-2.17,1.65-5.7a.52.52,0,0,1,.06-.15.31.31,0,0,1,.14-.12.09.09,0,0,1,.11,0l.66.81a.35.35,0,0,1,.09.28,1,1,0,0,1,0,.22l-1,3.25,2.22-1.76.15-.08a.18.18,0,0,1,.21.07l.67.81a.26.26,0,0,1,0,.16.44.44,0,0,1-.07.19.29.29,0,0,1-.11.11l-3.88,3Z" style="fill:#fafafa"></path><polygon points="205.98 216.06 196.73 209.06 200.72 201.43 205.63 205.14 222.06 173.78 226.41 177.06 205.98 216.06" style="fill:#6699CC"></polygon><path d="M242.14,173.22l.81,1.72,1.81-.69c.43-.17.6.44.29,1l-1.31,2.45.31,2.23c.07.53-.38,1.22-.76,1.17l-1.62-.2L240.05,183c-.38.5-.83.32-.76-.3l.31-2.58-1.31-.94c-.31-.23-.14-1,.29-1.36l1.81-1.4.81-2.65C241.39,173.14,242,172.82,242.14,173.22Z" style="fill:#fafafa"></path><path d="M240.45,188.63l.54,1.15,1.21-.46c.29-.11.41.29.2.69l-.88,1.64.21,1.49c.05.36-.25.82-.51.79l-1.09-.13-1.08,1.39c-.26.33-.56.21-.51-.2l.2-1.73-.87-.64c-.21-.15-.1-.69.19-.91l1.21-.94.55-1.78C240,188.57,240.32,188.36,240.45,188.63Z" style="fill:#fafafa"></path><path d="M240.45,162.5l.54,1.15,1.21-.46c.29-.12.41.29.2.68l-.88,1.65.21,1.49c.05.36-.25.82-.51.79l-1.09-.13-1.08,1.38c-.26.33-.56.22-.51-.2l.2-1.73-.87-.63c-.21-.15-.1-.69.19-.91l1.21-.94.55-1.78C240,162.44,240.32,162.22,240.45,162.5Z" style="fill:#fafafa"></path><path d="M181,208.53l-.81,2.65-1.8,1.4c-.44.33-.61,1.13-.3,1.36l1.31.94-.31,2.58c-.07.62.38.8.77.3l1.61-2.07,1.62.2c.39.05.84-.64.77-1.17l-.31-2.23,1.31-2.45c.31-.59.13-1.2-.3-1l-1.81.69-.8-1.72C181.74,207.57,181.19,207.9,181,208.53Z" style="fill:#fafafa"></path><path d="M182.69,222l-.55,1.78-1.21.93c-.29.22-.4.76-.19.92l.87.63-.2,1.73c0,.41.25.53.51.2l1.08-1.39,1.09.14c.26,0,.56-.44.51-.79l-.21-1.49.88-1.65c.21-.39.09-.8-.2-.69l-1.21.47-.54-1.16C183.19,221.34,182.82,221.56,182.69,222Z" style="fill:#fafafa"></path><path d="M182.69,195.85l-.55,1.78-1.21.93c-.29.22-.4.76-.19.91l.87.64-.2,1.73c0,.41.25.53.51.2l1.08-1.39,1.09.13c.26,0,.56-.43.51-.79l-.21-1.49.88-1.64c.21-.39.09-.8-.2-.69l-1.21.46-.54-1.15C183.19,195.21,182.82,195.42,182.69,195.85Z" style="fill:#fafafa"></path></g></g><g id="freepik--Character--inject-4"><g id="freepik--character--inject-4"><g id="freepik--Bottom--inject-4"><polygon points="418.76 298.27 414.56 296.66 415.95 293.8 418.53 296.24 418.76 298.27"></polygon><path d="M423.14,290.66s.15,2.75.19,3.62-3.66,3.55-4.57,4l-.23-2a15.42,15.42,0,0,0-2.12,3.27c-.72,1.24-1.63,3.57-3.58,5.16-2.9,2.35-7.4,3.53-12,3.68s-7.22-1-8.52-2A3,3,0,0,1,391,303C391.28,301.81,423.14,290.66,423.14,290.66Z" style="fill:#263238"></path><path d="M410.91,281.2l-.05-1.59c-.85,0-1,2.28-2.2,4.3a41.51,41.51,0,0,1-6.5,8.29c-4.68,4.24-8.84,6.9-10.93,8.82-2.79,2.55,2.07,6.66,9.57,6.28,3.72-.2,10.33-2.05,12.2-4.25s3-5.64,4.51-7.24,4.69-3.21,5.63-5.15c.51-1.07.25-3.57,0-5.7-.27-1.95-.31-4.94-1.41-4.7l-.08,1c-.45.85-1.49,2.26-4.49,2.75C415.62,284.26,411.16,284.37,410.91,281.2Z" style="fill:#455a64"></path><path d="M414.71,284.08c-1.43-.13-3-.62-3.56-1.92a.05.05,0,0,1,0,0,3.7,3.7,0,0,1-1,3.07c-1.35,1.57-9.87,12.65-9.87,12.65s7.92-9.14,9.44-10.86c2.25-2.54,3-2.84,5-2.9Z"></path><path d="M412.83,287a.46.46,0,1,0,.91-.1.46.46,0,1,0-.91.1Z"></path><path d="M410.61,289.47a.46.46,0,0,0,.5.41.48.48,0,0,0,.41-.51A.46.46,0,0,0,411,289,.45.45,0,0,0,410.61,289.47Z"></path><path d="M408.39,291.91a.45.45,0,0,0,.5.41.46.46,0,1,0-.1-.91A.45.45,0,0,0,408.39,291.91Z"></path><path d="M406.16,294.36a.46.46,0,0,0,.51.41.46.46,0,0,0-.1-.91A.46.46,0,0,0,406.16,294.36Z"></path><path d="M403.94,296.81a.45.45,0,0,0,.5.41.46.46,0,1,0-.09-.91A.45.45,0,0,0,403.94,296.81Z"></path><path d="M413.3,287.15a.21.21,0,0,0,.12,0,.18.18,0,0,0,0-.26,7.47,7.47,0,0,0-5.16-2.09h0a.19.19,0,0,0-.17.2.18.18,0,0,0,.2.17,7.33,7.33,0,0,1,4.89,2A.16.16,0,0,0,413.3,287.15Z" style="fill:#263238"></path><path d="M411.08,289.59a.16.16,0,0,0,.11,0,.19.19,0,0,0,0-.26,7.52,7.52,0,0,0-5.17-2.09h0a.18.18,0,0,0-.17.2.17.17,0,0,0,.19.17,7.3,7.3,0,0,1,4.89,2A.17.17,0,0,0,411.08,289.59Z" style="fill:#263238"></path><path d="M408.85,292.05A.17.17,0,0,0,409,292a.2.2,0,0,0,0-.27,7.48,7.48,0,0,0-5.17-2.08h0a.18.18,0,0,0-.17.19.19.19,0,0,0,.19.18,7.25,7.25,0,0,1,4.89,2A.16.16,0,0,0,408.85,292.05Z" style="fill:#263238"></path><path d="M406.63,294.5a.17.17,0,0,0,.12-.05.2.2,0,0,0,0-.27,7.51,7.51,0,0,0-5.17-2.08h0a.17.17,0,0,0-.17.19.19.19,0,0,0,.19.18,7.25,7.25,0,0,1,4.89,2A.19.19,0,0,0,406.63,294.5Z" style="fill:#263238"></path><path d="M404.41,297a.17.17,0,0,0,.12-.06.19.19,0,0,0,0-.26,7.58,7.58,0,0,0-5.17-2.09h0a.18.18,0,0,0-.17.19.2.2,0,0,0,.2.18,7.23,7.23,0,0,1,4.89,2A.24.24,0,0,0,404.41,297Z" style="fill:#263238"></path><path d="M453.09,311.57c.64,3.61,1.49,5.94,3,7.92s4.28,2.2,6.32,1.77a8.8,8.8,0,0,0,6.79-6.75c.66-2.48.2-5.33-.75-8.63Z" style="fill:#263238"></path><path d="M461.06,283.89c1,0,1.89,4.8,3.05,9.61,1.24,5.15,3.18,7.89,4.11,11.35,1.3,4.8,1.22,7-.14,10.21s-8.4,7-11.87,3.14c-2.84-3.16-3.39-7-3.75-11.91-.37-5.08-.59-8.66-1.25-12.47-.63-3.65-1.3-7.17-.47-7.68.13.53.27,1.2.41,1.72s.44,2.38,1,2.33a7.3,7.3,0,0,0-.15-1.39,1.63,1.63,0,0,1,.14-1.21,1.9,1.9,0,0,1,1.06-.64,29,29,0,0,1,2.94-.82,14.66,14.66,0,0,1,1.5-.25,16.8,16.8,0,0,1,2.65-.2.87.87,0,0,1,.6.43,1.47,1.47,0,0,1,.12.55,3.69,3.69,0,0,0,.25,1c.05.14.17.31.31.26a.31.31,0,0,0,.13-.32c-.07-.59-.19-1-.3-1.7,0-.31-.15-.74-.2-1.06S461.12,284.2,461.06,283.89Z" style="fill:#455a64"></path><path d="M464.67,306.5a.35.35,0,0,1-.27.43.35.35,0,0,1-.42-.27.37.37,0,0,1,.27-.43A.35.35,0,0,1,464.67,306.5Z"></path><path d="M463.94,303.16a.36.36,0,0,1-.27.43.36.36,0,1,1,.27-.43Z"></path><path d="M463.24,300a.36.36,0,0,1-.27.43.36.36,0,1,1,.27-.43Z"></path><path d="M462.55,296.9a.35.35,0,0,1-.27.43.35.35,0,0,1-.42-.27.37.37,0,0,1,.27-.43A.35.35,0,0,1,462.55,296.9Z"></path><path d="M454.64,298.36a.35.35,0,0,1-.69.15.35.35,0,1,1,.69-.15Z"></path><path d="M455.33,301.49a.35.35,0,0,1-.69.15.35.35,0,0,1,.27-.42A.35.35,0,0,1,455.33,301.49Z"></path><path d="M456,304.64a.37.37,0,0,1-.27.43.35.35,0,0,1-.42-.27.36.36,0,0,1,.27-.43A.35.35,0,0,1,456,304.64Z"></path><path d="M456.77,308a.36.36,0,0,1-.27.43.35.35,0,0,1-.42-.27.35.35,0,0,1,.26-.43A.36.36,0,0,1,456.77,308Z"></path><polygon points="459.92 309.22 454.42 285.96 455.72 285.77 459.92 309.22"></polygon><path d="M464.36,306.76h-.05c-2.39-.24-6.33.48-7.8,1.43a.16.16,0,0,1-.24-.06.18.18,0,0,1,.05-.25c1.55-1,5.53-1.73,8-1.48a.19.19,0,0,1,.17.2A.19.19,0,0,1,464.36,306.76Z" style="fill:#263238"></path><path d="M463.63,303.42h-.1c-1.87-.63-6.08.35-7.75,1.44a.18.18,0,0,1-.2-.31c1.75-1.13,6.09-2.14,8.07-1.47a.18.18,0,0,1,.11.23A.18.18,0,0,1,463.63,303.42Z" style="fill:#263238"></path><path d="M462.93,300.27h-.09c-1.88-.63-6.09.35-7.76,1.44a.18.18,0,1,1-.19-.31c1.74-1.13,6.08-2.14,8.06-1.47a.17.17,0,0,1,.11.23A.2.2,0,0,1,462.93,300.27Z" style="fill:#263238"></path><path d="M462.24,297.16a.14.14,0,0,1-.09,0c-1.88-.63-6.08.35-7.76,1.44a.17.17,0,0,1-.24,0,.18.18,0,0,1,.05-.25c1.74-1.14,6.09-2.15,8.06-1.48a.18.18,0,0,1,.12.23A.19.19,0,0,1,462.24,297.16Z" style="fill:#263238"></path><path d="M455.1,166c2.35,30,4.3,70.06,4.3,70.06.21,2.27,2.38,12,3.48,23.22,1.15,11.85,2.09,34,2.09,34s-8.24,4.45-14.91,2.22c0,0-7.15-37.38-10.57-51.34-3.24-13.21-8.3-38.26-8.3-38.26l-3.45,24.78s.46,8.55.21,14.53c-.3,6.95-4.71,40.37-4.71,40.37s-8.95,5.31-15.88,0c0,0-1.2-46.09-1.39-54.46-.33-14,1.42-43.82,2-65.74Z" style="fill:#37474f"></path><path d="M443.5,199.79q.93,10.78,2.08,21.54c.37,3.58.77,7.17,1.17,10.75l.61,5.37.31,2.69c.1.9.28,1.78.41,2.67,1.18,7.11,3,20,4.27,27.13s2.64,14.18,4.1,21.24q-1.4-10.74-3.05-21.41c-1.11-7.12-2.84-20-4-27.15-.14-.89-.32-1.77-.43-2.66l-.32-2.68-.68-5.37q-.68-5.35-1.39-10.71Q445.12,210.48,443.5,199.79Z" style="fill:#263238"></path><path d="M410.51,197.76c-.75,6.7-1.14,13.44-1.43,20.17s-.55,13.5-.3,20.23.34,18,.59,24.77.55,13.47.95,20.2q.17-10.11.07-20.21c-.05-6.74-.17-18-.31-24.77L410,233.1l0-1.26v-1.25l0-2.53.12-10.1.16-10.1C410.29,204.49,410.4,201.13,410.51,197.76Z" style="fill:#263238"></path><path d="M431.19,206l-2.91-16.42s-8.08-1.18-12.23-4.93c0,0,2.68,4.95,10.3,6.89L429.24,206l-1.5,24.73Z" style="fill:#263238"></path></g><g id="freepik--Top--inject-4"><path d="M371.94,138.32c1.83,1.42,3.74,3.64,6.86,6.16s7.85,7,12.39,9.59,6.76,3.71,12.34-2.15a156,156,0,0,0,14-17.85l-.24-21.52c-4.73,1.47-7.43,4-10.33,8.51-5.45,8.48-9.15,13.95-12.31,18.84,0,0-13.33-7.72-15.07-9a7.05,7.05,0,0,1-2.73-3.77,32.57,32.57,0,0,0-1.37-3.76c-.54-1.3-.75-1.79-1.38-3.43s-1.11-4.39-1.31-5c-.38-.69-1.41-.62-2.28,1.06a6.72,6.72,0,0,0-.37,3.32c.05,1,.36,2.23.05,2.39s-1.73-.56-3.17-.9-2.71-1-4.3-.48a1.89,1.89,0,0,0-1.3,2.5,2.5,2.5,0,0,0,.85,1,2,2,0,0,0-1.53.47,2.21,2.21,0,0,0,0,2.79,1.24,1.24,0,0,0-1.21,1.1c-.17.94-.07,1.88.87,2.25,0,0-.78.18-.82.63a2.22,2.22,0,0,0,.73,2.08,7.2,7.2,0,0,0,2.7.63s.14.34,1,.81a22.66,22.66,0,0,0,3,1.61C368.2,136.68,370.48,137.19,371.94,138.32Z" style="fill:#9e6767"></path><path d="M417.9,134.31l-.6-21.86a15,15,0,0,0-7,4.14c-2,2-5.5,7.73-7.61,10.89s-8,11.91-8,11.91l-12.2-6.65s.53,2.77-2.32,6.38-3.73,3.3-3.73,3.3a106.73,106.73,0,0,0,8.56,7.52c5.33,4.26,9,6.8,11.37,6.71s3.6-.64,7-3.86S417.9,134.31,417.9,134.31Z" style="fill:#37474f"></path><path d="M365.53,131.59a.79.79,0,0,1-.19.68,6.16,6.16,0,0,1-.68.67,2.67,2.67,0,0,1-.36.31,1.59,1.59,0,0,1-.39.2l-.93.34a3.72,3.72,0,0,0,1-.08,1.29,1.29,0,0,0,.51-.2,2.94,2.94,0,0,0,.41-.31,4.29,4.29,0,0,0,.67-.78,1.19,1.19,0,0,0,.14-.53.72.72,0,0,0-.11-.32,5.08,5.08,0,0,0,.75-.28,2.48,2.48,0,0,0,1-.73,1.9,1.9,0,0,0,.22-.63.67.67,0,0,0,0-.2l.29-.43a5.46,5.46,0,0,0,1.35,2.26,6.54,6.54,0,0,0,2.68,1.76,5.73,5.73,0,0,1-2.73-7.1s.05,0,.07,0a.8.8,0,0,0,.3-.37,1.22,1.22,0,0,0,0-.88,2.24,2.24,0,0,0-.4-.73,4.64,4.64,0,0,0-2.7-1.56,2.09,2.09,0,0,0-.4-.57,3.5,3.5,0,0,0-.54-.48,3.43,3.43,0,0,1,.48.53,2.25,2.25,0,0,1,.34.6v0h0a4.78,4.78,0,0,1,2.52,1.61,1.33,1.33,0,0,1,.31,1.28c-.12.23-.21.29-.45.26s-.5-.09-.76-.13c-.54-.07-1.06-.08-1.56-.14a6.34,6.34,0,0,1-1.48-.39c-.47-.18-.93-.43-1.4-.66a11.21,11.21,0,0,1-1.35-.77,12.81,12.81,0,0,0,2.66,1.67,5,5,0,0,0,1.52.45c.53.08,1.05.1,1.55.18l.31,0a1,1,0,0,1,.34.61,1.06,1.06,0,0,1-.54,1,6.45,6.45,0,0,1-1.13.65,3.78,3.78,0,0,1-1.24.29,9,9,0,0,1-2.5-.77c-.84-.32-1.68-.63-2.54-.9.8.41,1.62.79,2.44,1.16l1.24.53a4.05,4.05,0,0,0,1.36.33,4.13,4.13,0,0,0,.85-.17,1.24,1.24,0,0,1,.69.45.56.56,0,0,1,.11.49,1.58,1.58,0,0,1-.22.51,3.69,3.69,0,0,1-2.05.88,4.49,4.49,0,0,1-1.11-.34,7.55,7.55,0,0,0-1.22-.25,24.38,24.38,0,0,0-2.43-.24l2.39.51a10.92,10.92,0,0,1,1.16.29,4.38,4.38,0,0,0,1.19.38A1.43,1.43,0,0,0,365.53,131.59Zm3-5.35s0,0,0,0h0Z" style="fill:#874c4c"></path><path d="M387,136.74c0-.09-.13-.35-.17-.18-.15.65-.27.93-.41,1.38a13,13,0,0,1-.55,1.28,12.81,12.81,0,0,1-1.28,2.25,13.08,13.08,0,0,1-1.64,1.85c-.3.28-.59.56-.91.82a4.74,4.74,0,0,0-.93.79s0,.2,0,.19a2.41,2.41,0,0,0,1-.49c.34-.23.68-.47,1-.73a11.19,11.19,0,0,0,1.87-2,12.29,12.29,0,0,0,1.38-2.38C386.75,138.73,387.31,137.58,387,136.74Z" style="fill:#263238"></path><path d="M458,114.58c-3.09-.69-9.27-3-14.92-4.2l0-.48-.43.39-1.69-.37-13.41.59-.53.08c.07-.27.11-.45.11-.45l.1-.69a14.55,14.55,0,0,0-1.22,1.3c-2.75.42-8.28,1.29-8.71,1.54-6,2.86-7.91,12.23-8.4,28.29-.35,11.74-1.14,33.86-1.14,33.86s2.77,5.86,18.75,7.35c20.34,1.9,29.84-4.14,29.84-4.14-.07-8.39.42-11.79.37-16.86-.05-5.31,1.8-14.95,2.3-17.89C461.76,126.56,458,114.58,458,114.58Z" style="fill:#455a64"></path><path d="M418.5,85.18l-.1-.13a12.9,12.9,0,0,1-1.27-2.48c-.71-1.7-2.23-6.8,1-7-.69-.76-1.69-2.27-.52-3.08,1-.67,2.42-.06,3.51-.08A5,5,0,0,1,420,70.87a4.11,4.11,0,0,1-.39-1.76c.58.12,1.12.37,1.7.5a15.29,15.29,0,0,0,4.43.11c1.66-.12,3.24-.68,4.89-.81a31.93,31.93,0,0,1,4.89,0c5.4.42,10.68,2.74,11.62,8.3,4.32,1.35,3.72,8.48,2.6,11.61-2.29,6.35-6.68,11.84-6.8,15.11l-1.35-1-6.8-5.17q-4.41-3.33-8.8-6.68l-3.81-2.9A18.26,18.26,0,0,1,418.5,85.18Z" style="fill:#263238"></path><path d="M418.14,100.31c.81,3.09,2.56,5.38,5.4,5.86a23.42,23.42,0,0,0,4.1.2l-.09,4.14c-2,2.72-.07,8.29.86,9.57h0c3.59-5,12.17-5.94,14.68-9.45L443.22,98s1.71,2,4.61.17a6.27,6.27,0,0,0,2.07-7.65c-1.38-3-4.26-1.82-5.15-.92s-1.94,2.6-2.67,2.35a2.68,2.68,0,0,1-1.74-1.83,16.34,16.34,0,0,1-.85-5.84,6.63,6.63,0,0,1-2-1.61,6.51,6.51,0,0,1-1.32-4.5c-6.13-2-14-1.34-16.58.6-1.51,2.58-1.65,8.61-2,12.08A28.51,28.51,0,0,0,418.14,100.31Z" style="fill:#9e6767"></path><path d="M427.64,106.37c3.15-.13,9.92-1.62,11.63-3.36s2.49-5.32,2.49-5.32-.32,4.54-1.65,6.53-4.65,2.81-6.66,3.28-5.86.85-5.86.85Z" style="fill:#874c4c"></path><path d="M430.29,88.7a1.31,1.31,0,1,0,1.33-1.33A1.34,1.34,0,0,0,430.29,88.7Z" style="fill:#263238"></path><path d="M419.92,85.39l3.17-.46a1.53,1.53,0,0,0-1.76-1.38A1.69,1.69,0,0,0,419.92,85.39Z" style="fill:#263238"></path><path d="M430.88,85.08l3,1a1.53,1.53,0,0,0-.94-2A1.67,1.67,0,0,0,430.88,85.08Z" style="fill:#263238"></path><path d="M420.35,88.31a1.32,1.32,0,0,0,1.28,1.37A1.34,1.34,0,0,0,423,88.35a1.31,1.31,0,1,0-2.61,0Z" style="fill:#263238"></path><polygon points="427.53 86.47 426.45 95.81 421.7 93.47 427.53 86.47" style="fill:#874c4c"></polygon><path d="M430.76,97.1a2.33,2.33,0,1,1-4.34,1.71Z" style="fill:#874c4c"></path><path d="M430.37,98.35a2.25,2.25,0,0,0-2.27,1.88,2.3,2.3,0,0,0,2.77-1.81A2.08,2.08,0,0,0,430.37,98.35Z" style="fill:#ffa8a7"></path><path d="M428.43,120.08c1.57-.92,4.84-4,6.33-2s2.57,4.25,3.7,3.94,5.32-3.12,6.79-6.11a12.2,12.2,0,0,0,1.2-4.73,12.38,12.38,0,0,1-1.56-2.44c-.62-1.27-.79-2.46-1.77-2.54l0,3.18s-.85,1.79-4.16,3C434.5,114,430.51,115.75,428.43,120.08Z" style="fill:#37474f"></path><path d="M428.43,120.08c-.91-.85-1.38-3.37-2.9-3s-3.73,3.81-3.76,3,1-6.54,2.21-8.22,2.61-4.75,3.64-4.67l-.06,3.28a10.87,10.87,0,0,0-.61,3.68C427.14,115.56,428.26,118.76,428.43,120.08Z" style="fill:#37474f"></path><g id="freepik--Arm--inject-4"><path d="M464.36,186.66c1.05-1,2.37-1.83,2.87-3.25a2.42,2.42,0,0,0-.19-2.22,1.15,1.15,0,0,1-.23-.42,1,1,0,0,1,.05-.39,2.7,2.7,0,0,0,0-1.64,1.73,1.73,0,0,0-1-1,4,4,0,0,0,.16-2.47c-.26-1-1.17-1.78-1.88-.78a8.72,8.72,0,0,0-.86,1.59,20.94,20.94,0,0,0-1.78,4.32c-.27,1.55-.43,5.91,2,6.3C463.68,186.75,464.21,186.8,464.36,186.66Z" style="fill:#874c4c"></path><path d="M458.43,115.29c9.14,2.42,9.77,4.9,14.74,12.9s11.78,18.58,13.24,22.4c1.8,4.73,2.12,6.52-3.13,11-2.71,2.34-6.45,5.08-10.28,8.2-3,2.47-6.63,5-9.57,7.61a2.5,2.5,0,0,0-1,2.47,17.9,17.9,0,0,1,.35,1.89,17.06,17.06,0,0,1-.37,2.45,2.16,2.16,0,0,0,.81,2.19,2.45,2.45,0,0,0,1.17.22,8.31,8.31,0,0,1-2.35,1.07,3.43,3.43,0,0,1-2.52-.26c-.73-.42-1.25-1.18-2-1.47-.42-.17-.89-.18-1.32-.32a2.22,2.22,0,0,1-1.09-.84c-.42-.6-.55-1.45-1.17-1.85a8.18,8.18,0,0,0-1-.39,2.27,2.27,0,0,1-1.13-1.75,6.19,6.19,0,0,1,.21-2.14,51.54,51.54,0,0,1,1.58-5.59,5.32,5.32,0,0,1,1-1.68c.48-.6.94-1.21,1.45-1.78,3.48-3.83,14.55-16.63,14.55-16.63L459.9,137.41S451.47,128.07,458.43,115.29Z" style="fill:#9e6767"></path><path d="M470.61,153c2.61,3,7,3.5,8.59,3.52a9.24,9.24,0,0,1-9.59-2.36Z" style="fill:#f28f8f"></path></g><path d="M458,114.58c4.09.76,8.07,2.81,9.41,4.26s3.23,4.39,9,13.76,9.06,14.68,10.61,18.74,1.12,5.85-.91,8S470.21,172,470.21,172s-1.81-.48-4.9-3.4-3.72-5.23-3.72-5.23l8.27-10.49S459.49,139,457.42,136.19,453.14,121.86,458,114.58Z" style="fill:#37474f"></path><path d="M472.9,168.45a13.12,13.12,0,0,0-2-1.79c-.67-.57-1.31-1.18-1.94-1.81a22.29,22.29,0,0,1-1.72-1.91c-.27-.34-.54-.69-.8-1.05a4.2,4.2,0,0,0-.79-1c-.09-.07-.13.09-.12.15a3,3,0,0,0,.59,1.1c.26.38.52.74.79,1.1q.82,1.1,1.74,2.1a20.59,20.59,0,0,0,1.91,1.83,6.15,6.15,0,0,0,2.27,1.51C473,168.72,473,168.51,472.9,168.45Z" style="fill:#263238"></path></g></g></g></svg>
